<?xml version="1.0" encoding="utf-8"?>
<!-- Generator: Adobe Illustrator 17.0.0, SVG Export Plug-In . SVG Version: 6.00 Build 0)  -->
<!DOCTYPE svg PUBLIC "-//W3C//DTD SVG 1.1//EN" "http://www.w3.org/Graphics/SVG/1.1/DTD/svg11.dtd">
<svg version="1.1" id="Layer_1" xmlns="http://www.w3.org/2000/svg" xmlns:xlink="http://www.w3.org/1999/xlink" x="0px" y="0px"
	 width="23.685px" height="50px" viewBox="0 0 23.685 50" enable-background="new 0 0 23.685 50" xml:space="preserve">
<g display="none">
	<path display="inline" fill="#928479" d="M12.956,19.275c-0.41,0.66-0.941,1.19-1.754,1.297c-0.779,0.103-1.178-0.291-1.122-1.065
		c0.024-0.331,0.148-0.632,0.266-0.936c0.553-1.436,1.275-2.807,1.673-4.3c0.134-0.503,0.348-1.101-0.195-1.45
		c-0.541-0.348-1.027,0.079-1.414,0.411c-1.477,1.27-2.463,2.849-2.828,4.772c-0.091,0.479-0.158,1.026,0.346,1.332
		c0.536,0.324,1.055,0.093,1.529-0.223c0.159-0.106,0.308-0.227,0.492-0.302c-0.498,0.942-1.172,1.677-2.307,1.814
		c-0.816,0.099-1.409-0.327-1.635-1.12c-0.159-0.558-0.135-1.12,0.024-1.665c0.667-2.293,1.983-4.065,4.262-4.984
		c0.853-0.344,1.747-0.433,2.504,0.297c0.149,0.144,0.296,0.093,0.453,0.033c0.336-0.127,0.672-0.252,1.135-0.425
		c-0.348,0.871-0.65,1.633-0.958,2.394c-0.516,1.277-1.039,2.55-1.547,3.83c-0.104,0.262-0.32,0.617-0.079,0.81
		c0.276,0.221,0.55-0.119,0.805-0.267C12.729,19.455,12.84,19.36,12.956,19.275"/>
	<path display="inline" fill="#928479" d="M82.059,19.339c-0.394,0.64-0.914,1.13-1.684,1.232c-0.818,0.109-1.27-0.356-1.117-1.162
		c0.156-0.826,0.582-1.558,0.878-2.336c0.355-0.93,0.836-1.816,1.053-2.793c0.111-0.499,0.345-1.103-0.194-1.456
		c-0.541-0.356-1.025,0.078-1.415,0.405c-1.424,1.191-2.322,2.723-2.803,4.501c-0.038,0.138-0.045,0.287-0.05,0.432
		c-0.014,0.434-0.086,0.909,0.365,1.176c0.478,0.284,0.954,0.128,1.392-0.139c0.216-0.132,0.412-0.296,0.617-0.446
		c-0.257,1.043-1.628,2.002-2.68,1.874c-0.716-0.087-1.219-0.61-1.309-1.391c-0.059-0.507-0.051-1.017,0.105-1.509
		c0.708-2.232,2.004-3.98,4.249-4.875c0.856-0.341,1.75-0.425,2.504,0.304c0.153,0.148,0.299,0.082,0.453,0.025
		c0.334-0.124,0.669-0.248,1.132-0.42c-0.43,1.067-0.811,2.016-1.194,2.964c-0.434,1.075-0.869,2.15-1.303,3.226
		c-0.034,0.084-0.079,0.166-0.096,0.254c-0.041,0.207-0.19,0.459,0.012,0.612c0.201,0.152,0.408-0.05,0.592-0.153
		C81.737,19.569,81.895,19.449,82.059,19.339"/>
	<path display="inline" fill="#928479" d="M54.056,18.064c0.02-2.276,1.461-4.481,3.414-5.191c0.339-0.123,0.702-0.209,1.06-0.249
		c1.468-0.163,2.55,0.675,2.658,2.155c0.171,2.355-1.406,5.065-3.792,5.767c-0.588,0.173-1.192,0.2-1.783,0.038
		C54.579,20.298,54.044,19.41,54.056,18.064 M59.719,14.319c-0.034-0.223-0.051-0.497-0.119-0.758
		c-0.2-0.776-0.813-1.017-1.511-0.606c-0.336,0.198-0.592,0.481-0.812,0.796c-0.74,1.06-1.181,2.24-1.422,3.499
		c-0.16,0.839-0.325,1.682-0.06,2.527c0.219,0.7,0.844,0.917,1.474,0.531c0.366-0.225,0.63-0.552,0.853-0.907
		C59.094,17.862,59.531,16.156,59.719,14.319"/>
	<path display="inline" fill="#928479" d="M3.713,19.187c-0.434,0.652-0.976,1.201-1.787,1.367
		c-0.808,0.166-1.223-0.214-1.161-1.027c0.032-0.424,0.204-0.805,0.362-1.19c1.155-2.815,2.313-5.63,3.469-8.445
		C4.779,9.448,4.97,8.997,4.261,8.758c0.738,0,1.477-0.022,2.214,0.008c0.444,0.018,0.167,0.32,0.108,0.467
		c-0.7,1.749-1.419,3.491-2.128,5.236C3.8,16.08,3.148,17.692,2.503,19.306c-0.07,0.174-0.233,0.399-0.036,0.547
		c0.187,0.139,0.377-0.055,0.539-0.16C3.249,19.537,3.478,19.357,3.713,19.187"/>
	<path display="inline" fill="#928479" d="M97.124,19.075c-0.486,0.662-1.085,1.207-1.897,1.446
		c-0.881,0.258-1.472-0.277-1.169-1.133c0.471-1.331,1.047-2.625,1.58-3.935c0.171-0.42,0.352-0.836,0.522-1.256
		c0.072-0.178,0.244-0.4,0.05-0.545c-0.178-0.133-0.37,0.072-0.537,0.169c-0.213,0.123-0.415,0.267-0.648,0.362
		c0.516-0.582,1.092-1.094,1.838-1.351c0.807-0.277,1.406,0.272,1.184,1.108c-0.28,1.053-0.802,2.019-1.204,3.029
		c-0.308,0.775-0.645,1.538-0.962,2.31c-0.06,0.145-0.162,0.332-0.009,0.454c0.152,0.121,0.309-0.019,0.443-0.106
		C96.587,19.448,96.854,19.259,97.124,19.075"/>
	<path display="inline" fill="#928479" d="M42.241,14.361c0.491-0.594,1.051-1.098,1.744-1.433c0.415-0.2,0.851-0.281,1.226,0.063
		c0.359,0.329,0.318,0.761,0.155,1.161c-0.618,1.527-1.255,3.046-1.884,4.569c-0.076,0.184-0.155,0.367-0.226,0.553
		c-0.056,0.147-0.191,0.322-0.04,0.45c0.172,0.148,0.339-0.019,0.487-0.11c0.231-0.143,0.451-0.3,0.696-0.465
		c-0.308,0.689-1.569,1.481-2.272,1.434c-0.468-0.031-0.735-0.276-0.759-0.758c-0.016-0.335,0.079-0.641,0.207-0.946
		c0.652-1.552,1.304-3.105,1.944-4.662c0.07-0.169,0.272-0.379,0.091-0.541c-0.207-0.185-0.405,0.047-0.58,0.151
		C42.759,13.99,42.504,14.182,42.241,14.361"/>
	<path display="inline" fill="#928479" d="M88.228,14.549c0.596-0.83,1.264-1.586,2.313-1.862c1.227-0.323,2.061,0.354,1.999,1.611
		c-0.031,0.628-0.275,1.198-0.502,1.77c-0.376,0.943-0.764,1.882-1.14,2.825c-0.06,0.15-0.095,0.312-0.129,0.47
		c-0.026,0.124-0.057,0.273,0.055,0.358c0.115,0.087,0.245,0.003,0.355-0.059c0.181-0.103,0.359-0.213,0.563-0.278
		c-0.4,0.532-0.903,0.919-1.567,1.041c-0.65,0.118-1.056-0.254-1.042-0.912c0.007-0.334,0.134-0.635,0.249-0.94
		c0.472-1.255,1.081-2.458,1.429-3.759c0.104-0.389,0.221-0.82-0.156-1.11c-0.373-0.287-0.804-0.154-1.196,0.022
		C89.004,13.927,88.636,14.257,88.228,14.549"/>
	<path display="inline" fill="#928479" d="M69.926,19.265c-0.336,0.531-0.785,0.914-1.38,1.098
		c-0.892,0.275-1.486-0.243-1.241-1.139c0.18-0.66,0.478-1.289,0.724-1.931c0.284-0.744,0.573-1.487,0.85-2.234
		c0.062-0.168,0.103-0.349,0.123-0.527c0.092-0.795-0.283-1.119-1.071-0.933c-0.307,0.072-0.576,0.225-0.826,0.41
		c-0.242,0.179-0.478,0.367-0.745,0.514c0.629-0.82,1.295-1.595,2.369-1.855c1.194-0.289,2.035,0.415,1.941,1.633
		c-0.073,0.94-0.522,1.764-0.854,2.623c-0.294,0.76-0.599,1.516-0.884,2.279c-0.059,0.159-0.166,0.37,0.012,0.506
		c0.18,0.137,0.34-0.038,0.492-0.125C69.605,19.488,69.763,19.373,69.926,19.265"/>
	<path display="inline" fill="#928479" d="M30.537,19.287c-0.439,0.592-0.941,1.121-1.737,1.177
		c-0.65,0.046-0.943-0.258-0.915-0.909c0.015-0.331,0.123-0.637,0.24-0.943c0.447-1.168,0.91-2.33,1.325-3.509
		c0.156-0.443,0.414-0.985-0.082-1.354c-0.479-0.357-0.986-0.085-1.427,0.183c-0.331,0.202-0.629,0.458-0.972,0.652
		c0.645-0.851,1.32-1.669,2.449-1.911c1.094-0.235,1.852,0.391,1.802,1.495c-0.047,1.036-0.525,1.951-0.865,2.904
		c-0.262,0.734-0.544,1.46-0.805,2.194c-0.056,0.159-0.188,0.367,0.004,0.498c0.174,0.119,0.343-0.036,0.493-0.134
		C30.215,19.519,30.375,19.401,30.537,19.287"/>
	<path display="inline" fill="#928479" d="M22.182,14.429c0.584-0.847,1.29-1.539,2.342-1.739c1.215-0.231,1.973,0.467,1.823,1.679
		c-0.156,1.26-0.781,2.367-1.197,3.542c-0.242,0.683-0.559,1.34-0.783,2.028c-0.139,0.427-0.365,0.54-0.795,0.527
		c-1.008-0.03-0.994-0.002-0.648-0.949c0.546-1.497,1.2-2.955,1.644-4.488c0.123-0.426,0.332-0.915-0.138-1.251
		c-0.458-0.327-0.95-0.153-1.394,0.089C22.738,14.029,22.466,14.239,22.182,14.429"/>
	<path display="inline" fill="#928479" d="M38.258,12.68c0.158,0.042,0.378,0.033,0.463,0.135c0.554,0.662,1.129,0.309,1.709,0.075
		c0.081-0.033,0.157-0.096,0.307-0.003c-0.302,0.753-0.609,1.517-0.916,2.28c-0.514,1.277-1.03,2.553-1.543,3.83
		c-0.054,0.134-0.107,0.271-0.139,0.411c-0.031,0.139-0.071,0.299,0.053,0.411c0.137,0.123,0.285,0.025,0.403-0.043
		c0.291-0.171,0.57-0.363,0.877-0.515c-0.413,0.577-0.905,1.062-1.61,1.265c-0.998,0.287-1.606-0.29-1.328-1.289
		c0.306-1.101,0.847-2.116,1.255-3.181c0.194-0.507,0.386-1.015,0.569-1.525c0.226-0.629,0.282-1.255-0.089-1.858L38.258,12.68z"/>
	<path display="inline" fill="#928479" d="M38.269,12.671c-0.658-0.001-1.198,0.281-1.66,0.716c-1.286,1.212-2.19,2.658-2.592,4.38
		c-0.13,0.556-0.276,1.212,0.339,1.577c0.6,0.355,1.155,0.025,1.654-0.344c0.115-0.085,0.217-0.185,0.353-0.302
		c-0.294,1.061-1.531,1.977-2.57,1.937c-0.846-0.033-1.403-0.622-1.478-1.582c-0.051-0.643,0.058-1.268,0.302-1.861
		c0.797-1.946,2.006-3.524,4.04-4.328c0.507-0.2,1.042-0.335,1.6-0.183C38.258,12.68,38.269,12.671,38.269,12.671"/>
	<path display="inline" fill="#928479" d="M63.43,14.039c0.485-0.498,0.98-0.964,1.649-1.181c0.711-0.231,1.157,0.162,1.008,0.903
		c-0.205,1.017-0.704,1.934-1.063,2.899c-0.398,1.068-0.861,2.112-1.248,3.183c-0.166,0.46-0.385,0.644-0.9,0.618
		c-0.957-0.05-0.958-0.013-0.609-0.908c0.658-1.685,1.319-3.369,1.969-5.057c0.08-0.207,0.306-0.47,0.112-0.645
		c-0.228-0.206-0.457,0.072-0.675,0.18C63.611,14.059,63.557,14.127,63.43,14.039"/>
	<path display="inline" fill="#928479" d="M85.281,14.19c0.356-0.527,0.82-0.931,1.375-1.217c0.349-0.18,0.738-0.295,1.089-0.037
		c0.378,0.277,0.271,0.701,0.169,1.055c-0.155,0.537-0.381,1.055-0.587,1.577c-0.558,1.416-1.146,2.82-1.669,4.249
		c-0.179,0.49-0.413,0.667-0.938,0.642c-0.929-0.045-0.926-0.011-0.586-0.881c0.658-1.687,1.316-3.375,1.962-5.067
		c0.084-0.219,0.334-0.501,0.089-0.683c-0.222-0.166-0.462,0.106-0.678,0.229C85.431,14.099,85.356,14.145,85.281,14.19"/>
	<path display="inline" fill="#928479" d="M50.774,12.64c-0.98,0.691-1.163,1.442-0.565,2.518c0.379,0.681,0.846,1.315,1.216,2.001
		c0.43,0.797,0.514,1.644-0.027,2.424c-0.565,0.814-1.434,1.03-2.449,1.075c1.31-0.931,1.487-1.777,0.707-3.142
		c-0.297-0.52-0.636-1.018-0.911-1.549C47.844,14.222,48.788,12.686,50.774,12.64"/>
	<path display="inline" fill="#928479" d="M18.848,14.32c0.38-0.531,0.854-0.983,1.421-1.322c0.42-0.251,0.89-0.426,1.334-0.1
		c0.461,0.338,0.309,0.828,0.141,1.247c-0.799,2.004-1.632,3.995-2.429,6c-0.158,0.399-0.454,0.293-0.724,0.296
		c-0.943,0.012-0.944,0.006-0.604-0.85c0.669-1.685,1.339-3.37,2.007-5.056c0.06-0.151,0.115-0.305,0.162-0.461
		c0.04-0.136,0.111-0.296-0.041-0.399c-0.142-0.096-0.282-0.002-0.404,0.076C19.42,13.937,19.136,14.13,18.848,14.32"/>
	<path display="inline" fill="#928479" d="M48.137,20.606c-1.327-0.233-1.962-1.059-1.807-2.224
		c0.075-0.562,0.484-1.011,0.996-1.075c0.357-0.044,0.658,0.077,0.819,0.405c0.154,0.313,0.063,0.607-0.199,0.826
		C46.979,19.345,47,19.877,48.137,20.606"/>
	<path display="inline" fill="#928479" d="M99.13,10.784c0.002,0.547-0.415,0.966-0.956,0.961c-0.532-0.005-0.963-0.447-0.952-0.975
		c0.011-0.515,0.419-0.919,0.939-0.931C98.71,9.826,99.128,10.234,99.13,10.784"/>
	<path display="inline" fill="#928479" d="M46.507,10.791c-0.001,0.537-0.434,0.962-0.971,0.953
		c-0.528-0.009-0.965-0.462-0.95-0.982c0.015-0.51,0.431-0.914,0.951-0.924C46.079,9.828,46.508,10.249,46.507,10.791"/>
	<path display="inline" fill="#928479" d="M51.424,12.65c0.895,0.024,1.589,0.51,1.767,1.236c0.163,0.666-0.25,1.268-0.838,1.222
		c-0.545-0.043-0.794-0.482-0.545-0.964C52.218,13.349,52.16,13.12,51.424,12.65"/>
	<path display="inline" fill="#928479" d="M46.829,33.734c0.188-0.108,0.32-0.235,0.446-0.366c0.511-0.526,1.077-0.992,1.609-1.495
		c0.069-0.066,0.137-0.136,0.193-0.213c0.097-0.131,0.242-0.214,0.37-0.13c0.134,0.088,0.128,0.283,0.048,0.41
		c-0.121,0.191-0.187,0.404-0.29,0.601c-0.142,0.27-0.155,0.564-0.081,0.855c0.06,0.233,0.223,0.322,0.483,0.255
		c0.544-0.14,1.042-0.378,1.518-0.681c0.426-0.271,0.669-0.67,0.935-1.073c0.313-0.476,0.707-0.888,1.236-1.144
		c0.131-0.063,0.28-0.107,0.378,0.011c0.108,0.13,0.158,0.311,0.03,0.463c-0.434,0.513-0.736,1.143-1.337,1.513
		c-0.13,0.08-0.215,0.224-0.346,0.319c-0.096,0.07-0.012,0.179,0.057,0.241c0.179,0.162,0.383,0.233,0.636,0.206
		c0.806-0.085,1.501-0.453,2.193-0.832c0.049-0.027,0.094-0.06,0.143-0.087c0.122-0.069,0.22-0.102,0.118-0.304
		c-0.084-0.165-0.175-0.392-0.016-0.607c0.109-0.148,0.238-0.167,0.334,0.002c0.054,0.094,0.097,0.198,0.089,0.318
		c-0.004,0.055,0.034,0.141,0.078,0.163c0.034,0.018,0.132-0.026,0.16-0.069c0.222-0.337,0.506-0.629,0.707-0.982
		c0.153-0.27,0.362-0.505,0.545-0.754c0.308-0.419,0.595-0.867,1.025-1.189c0.082-0.062,0.152-0.133,0.242-0.04
		c0.089,0.091,0.133,0.218,0.052,0.324c-0.168,0.219-0.359,0.42-0.495,0.663c-0.028,0.051-0.076,0.055-0.143,0.044
		c-0.157-0.025-0.279,0.011-0.365,0.187c-0.12,0.247-0.323,0.446-0.489,0.664c-0.332,0.436-0.657,0.878-0.971,1.327
		c-0.065,0.093-0.045,0.168,0.083,0.182c0.134,0.015,0.262,0.031,0.4-0.014c0.667-0.222,1.341-0.425,2.006-0.654
		c0.193-0.066,0.368-0.127,0.57-0.021c-0.056,0.233-0.296,0.2-0.44,0.258c-0.575,0.234-1.163,0.444-1.759,0.62
		c-0.314,0.092-0.644,0.23-0.988,0.047c-0.137-0.073-0.244-0.016-0.303,0.158c-0.2,0.591-0.418,1.175-0.63,1.762
		c-0.346,0.958-0.684,1.921-1.385,2.699c-0.138,0.153-0.258,0.322-0.392,0.479c-0.19,0.223-0.443,0.295-0.635,0.188
		c-0.191-0.106-0.272-0.427-0.19-0.685c0.19-0.6,0.589-1.076,0.953-1.566c0.662-0.89,1.225-1.848,1.897-2.731
		c0.066-0.086,0.128-0.176,0.159-0.307c-0.33,0.087-0.568,0.298-0.845,0.431c-0.569,0.275-1.141,0.541-1.784,0.572
		c-0.549,0.027-0.976-0.326-1.035-0.836c-0.091,0.074-0.17,0.135-0.246,0.2c-0.483,0.408-1.027,0.694-1.647,0.833
		c-0.395,0.089-0.777-0.036-0.902-0.36c-0.106-0.273-0.107-0.576-0.006-0.864c0.049-0.14,0.197-0.316,0.071-0.414
		c-0.094-0.074-0.205,0.127-0.285,0.226c-0.392,0.489-0.883,0.877-1.329,1.31c-0.113,0.11-0.23,0.221-0.356,0.315
		c-0.157,0.118-0.347,0.114-0.485-0.021c-0.129-0.125-0.097-0.304-0.004-0.442c0.17-0.252,0.249-0.554,0.442-0.792
		c0.027-0.033,0.054-0.078,0.021-0.171c-0.189,0.213-0.423,0.34-0.621,0.517c-0.44,0.396-0.922,0.742-1.379,1.117
		c-0.44,0.361-0.904,0.685-1.379,0.993c-0.521,0.338-1.052,0.665-1.619,0.926c-0.348,0.16-0.687,0.35-1.05,0.465
		c-0.525,0.167-1.053,0.349-1.63,0.254c-0.129-0.021-0.278-0.01-0.419-0.022c-0.891-0.078-1.293-0.947-1.216-1.674
		c0.079-0.749,0.375-1.421,0.686-2.093c0.388-0.836,0.893-1.603,1.386-2.375c0.222-0.348,0.479-0.676,0.735-1.004
		c0.323-0.414,0.615-0.854,0.966-1.244c0.731-0.81,1.466-1.616,2.245-2.384c0.546-0.538,1.142-0.996,1.779-1.391
		c0.589-0.365,1.218-0.716,1.966-0.654c0.579,0.048,1.105,0.195,1.382,0.777c0.057,0.12,0.081,0.245,0.049,0.388
		c-0.099,0.436-0.311,0.802-0.621,1.121c-0.325,0.334-0.668,0.649-1.005,0.97c-0.309,0.294-0.586,0.621-0.93,0.878
		c-0.292,0.218-0.525,0.503-0.809,0.726c-0.36,0.283-0.696,0.601-1.094,0.834c-0.268,0.157-0.495,0.38-0.796,0.484
		c-0.288,0.099-0.48,0.065-0.623-0.131c-0.053-0.072-0.114-0.155-0.057-0.24c0.063-0.093,0.174-0.189,0.283-0.131
		c0.264,0.143,0.471-0.001,0.673-0.114c0.726-0.408,1.392-0.897,2.004-1.466c0.366-0.341,0.794-0.615,1.137-0.983
		c0.269-0.289,0.603-0.506,0.826-0.852c0.146-0.226,0.372-0.408,0.553-0.621c0.295-0.347,0.347-0.922-0.246-1.173
		c-0.461-0.194-0.909-0.203-1.379-0.084c-0.494,0.125-0.928,0.356-1.368,0.614c-0.428,0.252-0.818,0.546-1.199,0.85
		c-0.382,0.306-0.722,0.666-1.067,1.016c-0.381,0.386-0.775,0.765-1.112,1.188c-0.355,0.447-0.734,0.875-1.074,1.336
		c-0.411,0.558-0.841,1.102-1.218,1.683c-0.316,0.487-0.606,0.992-0.877,1.505c-0.276,0.522-0.558,1.047-0.73,1.614
		c-0.125,0.411-0.202,0.834-0.141,1.271c0.099,0.71,0.372,0.971,1.062,1.107c0.564,0.111,1.088-0.011,1.612-0.173
		c0.759-0.235,1.459-0.609,2.156-0.978c0.6-0.318,1.147-0.724,1.687-1.137c0.372-0.285,0.769-0.539,1.134-0.831
		c0.596-0.479,1.156-1.003,1.737-1.501c0.131-0.112,0.203-0.28,0.381-0.352c0.097-0.039,0.099-0.184,0.153-0.277
		c0.338-0.577,0.725-1.118,1.138-1.641c0.29-0.368,0.597-0.724,0.904-1.078c0.111-0.127,0.221-0.252,0.292-0.407
		c0.029-0.064,0.054-0.141,0.151-0.125c0.118,0.02,0.217,0.084,0.255,0.192c0.021,0.061,0.036,0.144-0.034,0.22
		c-0.484,0.528-0.936,1.083-1.402,1.626c-0.425,0.495-0.787,1.033-1.182,1.546c-0.307,0.399-0.554,0.835-0.859,1.233
		C46.927,33.238,46.784,33.443,46.829,33.734 M55.084,33.476c-0.156,0.243-0.396,0.42-0.537,0.656
		c-0.137,0.227-0.277,0.456-0.416,0.682c-0.409,0.666-0.96,1.234-1.338,1.923c-0.164,0.299-0.347,0.589-0.304,0.954
		c0.02,0.173,0.128,0.181,0.233,0.098c0.34-0.27,0.605-0.613,0.883-0.943c0.162-0.192,0.21-0.454,0.355-0.636
		c0.255-0.32,0.372-0.698,0.52-1.056C54.705,34.607,54.88,34.039,55.084,33.476 M53.425,31.149
		c-0.306,0.062-0.589,0.167-0.741,0.399c-0.151,0.229-0.346,0.414-0.507,0.631c-0.092,0.125-0.176,0.246-0.196,0.401
		c-0.007,0.051-0.074,0.106-0.013,0.152c0.073,0.055,0.117-0.021,0.159-0.061c0.289-0.276,0.591-0.541,0.855-0.84
		C53.159,31.63,53.279,31.378,53.425,31.149"/>
	<path display="inline" fill="#928479" d="M28.04,32.675c0.324-0.33,0.656-0.64,1.014-0.919c0.414-0.322,0.842-0.633,1.322-0.847
		c0.294-0.131,0.619-0.177,0.943-0.094c0.207,0.053,0.243,0.236,0.261,0.411c0.014,0.132,0.051,0.197,0.19,0.137
		c0.302-0.13,0.628-0.178,0.945-0.244c0.324-0.067,0.523-0.285,0.734-0.503c0.149-0.153,0.314-0.264,0.545-0.272
		c0.149-0.005,0.221,0.067,0.267,0.18c0.05,0.123-0.062,0.166-0.115,0.25c-0.265,0.417-0.797,0.415-1.108,0.762
		c-0.3,0.335-0.619,0.654-0.905,1.003c-0.225,0.275-0.428,0.565-0.617,0.866c-0.053,0.084-0.122,0.169-0.038,0.256
		c0.074,0.077,0.162,0.016,0.243-0.019c0.843-0.363,1.629-0.824,2.326-1.421c0.333-0.285,0.632-0.61,0.939-0.923
		c0.13-0.132,0.213-0.296,0.254-0.481c0.015-0.07,0.068-0.163,0.133-0.148c0.068,0.015,0.141,0.043,0.213,0.105
		c0.328,0.283,0.035,0.507-0.066,0.712c-0.267,0.546-0.57,1.076-0.924,1.574c-0.073,0.103-0.116,0.223-0.137,0.364
		c0.233-0.138,0.448-0.27,0.668-0.392c0.095-0.053,0.225-0.131,0.299-0.009c0.078,0.128-0.078,0.17-0.156,0.22
		c-0.235,0.151-0.467,0.313-0.719,0.433c-0.375,0.179-0.511,0.551-0.744,0.845c-0.083,0.104-0.111,0.255-0.2,0.35
		c-0.411,0.438-0.699,0.978-1.142,1.385c-0.212,0.195-0.347,0.456-0.558,0.634c-0.452,0.383-0.83,0.864-1.397,1.106
		c-0.091,0.039-0.153,0.06-0.232-0.022c-0.076-0.08-0.097-0.142-0.04-0.249c0.226-0.426,0.497-0.81,0.859-1.137
		c0.49-0.442,0.979-0.888,1.419-1.382c0.282-0.317,0.555-0.64,0.901-0.892c0.327-0.238,0.517-0.578,0.691-0.931
		c0.234-0.474,0.478-0.943,0.717-1.415c0.021-0.042,0.054-0.082,0.011-0.145c-0.243,0.194-0.49,0.381-0.692,0.617
		c-0.206,0.241-0.466,0.406-0.733,0.566c-0.285,0.171-0.565,0.35-0.838,0.539c-0.274,0.19-0.582,0.303-0.89,0.412
		c-0.178,0.063-0.396,0.114-0.51-0.108c-0.098-0.19-0.088-0.406,0.044-0.579c0.294-0.384,0.615-0.749,0.904-1.137
		c0.17-0.229,0.387-0.424,0.553-0.747c-0.397,0.119-0.735,0.219-1.072,0.321c-0.044,0.013-0.048,0.056-0.066,0.091
		c-0.286,0.557-0.696,1.028-1.189,1.39c-0.388,0.285-0.796,0.59-1.313,0.647c-0.144,0.016-0.27,0.02-0.37-0.102
		c-0.104-0.127-0.008-0.224,0.048-0.324c0.316-0.571,0.832-0.928,1.355-1.288c0.317-0.217,0.66-0.37,1.003-0.53
		c0.157-0.074,0.198-0.198,0.146-0.357c-0.051-0.156-0.168-0.163-0.309-0.148c-0.566,0.06-0.998,0.391-1.454,0.685
		c-0.272,0.175-0.522,0.384-0.763,0.586c-0.368,0.308-0.679,0.694-0.971,1.079c-0.167,0.221-0.331,0.448-0.51,0.657
		c-0.172,0.201-0.324,0.412-0.456,0.637c-0.077,0.131-0.199,0.124-0.305,0.158c-0.084,0.027-0.101-0.08-0.136-0.137
		c-0.033-0.054-0.023-0.105,0.016-0.155c0.464-0.6,0.904-1.216,1.306-1.86c0.717-1.148,1.562-2.214,2.183-3.426
		c0.337-0.657,0.748-1.277,1.173-1.884c0.063-0.091,0.137-0.178,0.134-0.301c-0.001-0.065-0.031-0.162,0.083-0.162
		c0.116,0,0.252-0.048,0.342,0.055c0.065,0.074,0.073,0.178,0.009,0.267c-0.112,0.155-0.218,0.317-0.345,0.459
		c-0.241,0.269-0.432,0.573-0.623,0.874c-0.456,0.723-0.855,1.484-1.341,2.185c-0.325,0.468-0.573,0.989-0.968,1.41
		C28.164,32.34,28.142,32.529,28.04,32.675 M31.092,31.888c-0.498,0.124-0.877,0.411-1.255,0.702
		c-0.281,0.216-0.551,0.443-0.775,0.719c-0.053,0.066-0.132,0.143-0.066,0.232c0.059,0.078,0.142,0.019,0.219-0.001
		c0.289-0.076,0.531-0.25,0.776-0.402C30.47,32.841,30.822,32.413,31.092,31.888 M30.664,37.567c0.136-0.028,0.19-0.078,0.235-0.131
		c0.274-0.325,0.638-0.55,0.931-0.856c0.481-0.503,0.89-1.066,1.347-1.589c0.03-0.035,0.066-0.084,0.014-0.123
		c-0.045-0.034-0.092-0.006-0.125,0.033c-0.072,0.086-0.137,0.178-0.211,0.261c-0.547,0.612-1.159,1.161-1.721,1.758
		C30.965,37.099,30.772,37.273,30.664,37.567"/>
	<path display="inline" fill="#928479" d="M66.214,32.108c-0.1,0.037-0.193-0.009-0.276-0.042c-0.178-0.072-0.2-0.288-0.066-0.415
		c0.562-0.532,1.242-0.603,1.966-0.516c0.024,0.003,0.047,0.009,0.07,0.016c0.594,0.162,0.635,0.453,0.412,0.91
		c-0.185,0.379-0.479,0.696-0.812,0.966c-0.2,0.162-0.427,0.292-0.565,0.523c-0.072,0.122-0.214,0.163-0.328,0.234
		c-0.13,0.08-0.252,0.167-0.35,0.29c0.051,0.072,0.121,0.05,0.19,0.046c0.632-0.042,1.147,0.166,1.495,0.714
		c0.088,0.138,0.207,0.198,0.342,0.124c0.348-0.19,0.746-0.155,1.109-0.277c0.627-0.211,1.289-0.249,1.934-0.374
		c0.054-0.01,0.113-0.018,0.167-0.009c0.08,0.013,0.209-0.016,0.215,0.094c0.005,0.097-0.115,0.048-0.176,0.059
		c-0.592,0.112-1.189,0.201-1.777,0.329c-0.466,0.101-0.921,0.25-1.383,0.37c-0.154,0.04-0.176,0.106-0.131,0.258
		c0.305,1.021-0.033,1.881-0.688,2.659c-0.149,0.177-0.262,0.389-0.429,0.546c-0.602,0.565-1.152,1.19-1.891,1.599
		c-0.362,0.2-0.681,0.489-1.057,0.652c-0.502,0.218-0.968,0.504-1.488,0.695c-0.487,0.179-0.97,0.274-1.48,0.305
		c-0.672,0.041-1.464-0.452-1.066-1.485c0.306-0.793,0.811-1.433,1.443-1.961c0.789-0.659,1.603-1.295,2.511-1.793
		c0.356-0.195,0.715-0.386,1.127-0.608c-0.458,0.049-0.861,0.034-1.26,0.112c-0.198,0.039-0.406,0.015-0.611,0.053
		c-0.584,0.108-1.169,0.23-1.76,0.276c-0.335,0.026-0.655,0.117-0.987,0.142c-0.366,0.028-0.73,0.088-1.096,0.112
		c-0.16,0.011-0.3,0.08-0.46,0.094c-0.641,0.058-1.263,0.242-1.906,0.311c-0.166,0.018-0.324,0.02-0.486,0.013
		c-0.099-0.004-0.181-0.032-0.172-0.149c0.008-0.105,0.057-0.173,0.18-0.181c0.372-0.025,0.745-0.047,1.114-0.094
		c0.48-0.061,0.958-0.132,1.433-0.222c0.5-0.095,1.002-0.174,1.508-0.218c0.56-0.049,1.117-0.121,1.671-0.211
		c1.075-0.176,2.158-0.282,3.242-0.376c0.564-0.049,1.076-0.255,1.598-0.439c0.038-0.013,0.078-0.022,0.111-0.043
		c0.108-0.067,0.335-0.012,0.326-0.161c-0.01-0.174-0.162-0.364-0.322-0.42c-0.3-0.106-0.62-0.278-0.947-0.126
		c-0.293,0.136-0.642,0.088-0.908,0.301c-0.122,0.098-0.279,0.017-0.418,0.051c-0.051,0.012-0.084-0.064-0.09-0.123
		c-0.007-0.074-0.002-0.144,0.08-0.181c0.829-0.379,1.458-1.028,2.127-1.615c0.332-0.291,0.682-0.596,0.824-1.047
		c0.086-0.272,0.001-0.374-0.282-0.408c-0.542-0.066-1.011,0.122-1.476,0.365C66.093,31.919,66.253,32.019,66.214,32.108
		 M61.299,41.61c0.352,0.043,0.701-0.073,1.037-0.184c0.595-0.198,1.162-0.467,1.712-0.778c0.759-0.428,1.518-0.847,2.162-1.444
		c0.663-0.613,1.262-1.274,1.653-2.101c0.27-0.571,0.311-1.137,0.025-1.715c-0.045-0.09-0.073-0.147-0.193-0.099
		c-0.25,0.1-0.507,0.183-0.759,0.278c-0.059,0.022-0.18,0.015-0.079,0.147c0.068,0.089-0.025,0.154-0.098,0.179
		c-0.261,0.091-0.519,0.238-0.805,0.081c-0.05-0.027-0.099-0.018-0.136,0.008c-0.32,0.225-0.706,0.314-1.042,0.519
		c-0.445,0.272-0.915,0.501-1.348,0.799c-0.547,0.376-1.084,0.765-1.591,1.19c-0.285,0.239-0.519,0.542-0.764,0.827
		c-0.351,0.408-0.633,0.849-0.73,1.4c-0.077,0.438,0.064,0.732,0.489,0.86C60.98,41.622,61.128,41.655,61.299,41.61"/>
	<path display="inline" fill="#928479" d="M58.053,27.898c-0.308-0.323-0.29-0.446,0.052-0.669c0.304-0.198,0.644-0.289,0.986-0.395
		c0.327-0.101,0.655-0.202,0.982-0.305c0.734-0.231,1.46-0.483,2.227-0.608c0.567-0.092,1.137-0.162,1.702-0.255
		c0.522-0.087,1.047-0.119,1.57-0.172c0.513-0.052,1.031-0.081,1.544-0.129c0.845-0.079,1.688-0.03,2.532-0.045
		c0.724-0.013,1.45-0.021,2.172,0.02c0.283,0.016,0.587-0.031,0.851,0.082c0.241,0.104,0.473,0.002,0.706,0.044
		c0.09,0.016,0.198,0.02,0.216,0.112c0.02,0.101-0.043,0.226-0.135,0.253c-0.12,0.035-0.235,0.087-0.365,0.104
		c-0.295,0.039-0.588,0.105-0.878,0.173c-0.106,0.025-0.196,0.002-0.333-0.014c0.256-0.229,0.558-0.253,0.837-0.374
		c-0.485-0.142-0.964-0.156-1.446-0.152c-0.34,0.003-0.685,0.015-1.018-0.002c-0.548-0.028-1.093,0.014-1.639-0.011
		c-0.24-0.011-0.426,0.028-0.51,0.311c-0.061,0.207-0.266,0.344-0.424,0.479c-0.375,0.321-0.55,0.789-0.884,1.127
		c-0.295,0.298-0.494,0.66-0.743,0.987c-0.393,0.517-0.83,1.003-1.136,1.587c-0.131,0.252-0.329,0.472-0.512,0.693
		c-0.454,0.548-0.795,1.174-1.229,1.735c-0.261,0.338-0.496,0.687-0.721,1.05c-0.339,0.548-0.646,1.107-0.849,1.719
		c-0.017,0.052-0.037,0.109-0.034,0.163c0.005,0.082-0.027,0.189,0.085,0.226c0.103,0.034,0.133-0.061,0.179-0.123
		c0.14-0.187,0.335-0.333,0.393-0.58c0.017-0.074,0.118-0.115,0.202-0.062c0.106,0.065,0.053,0.188,0.017,0.235
		c-0.169,0.217-0.227,0.502-0.452,0.689c-0.141,0.117-0.263,0.26-0.455,0.184c-0.187-0.074-0.29-0.243-0.329-0.439
		c-0.032-0.161,0.011-0.316,0.06-0.47c0.177-0.556,0.502-1.03,0.821-1.51c0.327-0.493,0.68-0.966,1.023-1.447
		c0.3-0.421,0.614-0.832,0.913-1.254c0.304-0.429,0.586-0.872,0.895-1.297c0.438-0.603,0.899-1.19,1.333-1.794
		c0.489-0.68,1.024-1.328,1.467-2.042c0.062-0.1,0.093-0.151-0.075-0.172c-0.225-0.027-0.444,0.006-0.663,0.021
		c-0.623,0.043-1.244,0.108-1.863,0.184c-0.561,0.07-1.126,0.11-1.684,0.188c-0.452,0.063-0.9,0.181-1.355,0.249
		c-0.483,0.072-0.926,0.292-1.412,0.367c-0.125,0.019-0.292,0.082-0.427,0.151c-0.32,0.165-0.667,0.251-1.008,0.356
		c-0.373,0.115-0.693,0.329-1.016,0.537C58.123,27.669,58.1,27.781,58.053,27.898"/>
	<path display="inline" fill="#928479" d="M69.967,32.924c-0.273,0.42-0.703,0.608-1.034,0.913
		c-0.138,0.128-0.304,0.238-0.516,0.219c-0.183-0.017-0.289-0.099-0.246-0.296c0.022-0.1,0.017-0.208,0.085-0.296
		c0.402-0.513,0.714-1.081,1.009-1.659c0.082-0.161,0.244-0.237,0.342-0.383c0.064-0.094,0.201-0.055,0.273,0.03
		c0.083,0.099,0.041,0.219-0.037,0.296c-0.382,0.382-0.66,0.845-0.997,1.261c-0.151,0.186-0.26,0.402-0.35,0.625
		c-0.017,0.043-0.049,0.087-0.004,0.131c0.047,0.047,0.087,0.006,0.129-0.012c0.265-0.112,0.448-0.337,0.687-0.487
		c0.521-0.327,0.877-0.822,1.276-1.273c0.077-0.087,0.165-0.217,0.292-0.088c0.117,0.119,0.013,0.224-0.08,0.299
		c-0.26,0.21-0.399,0.486-0.48,0.804c-0.026,0.103-0.046,0.199,0.035,0.263c0.08,0.063,0.139-0.039,0.205-0.075
		c0.686-0.369,1.336-0.794,1.971-1.243c0.049-0.034,0.111-0.094,0.17-0.032c0.067,0.072,0.002,0.146-0.046,0.185
		c-0.215,0.172-0.411,0.368-0.663,0.494c-0.162,0.081-0.322,0.179-0.459,0.297c-0.231,0.199-0.515,0.318-0.741,0.524
		c-0.141,0.129-0.337,0.154-0.517,0.156c-0.215,0.002-0.261-0.186-0.269-0.351C69.997,33.143,70.007,33.059,69.967,32.924"/>
</g>
<g id="g10" transform="scale(0.1)" display="none">
	<path id="path12" display="inline" fill="#231F20" d="M71.336,403.4c4.487,0,7.899-3.552,7.899-8.039
		c0-4.394-3.412-7.994-7.899-7.994c-4.535,0-7.946,3.599-7.946,7.994C63.39,399.847,66.801,403.4,71.336,403.4z M63.39,406.765
		h-3.88v-32.252h3.88v14.07c1.636-3.038,4.767-5.048,8.647-5.048c6.498,0,11.266,5.189,11.266,11.826
		c0,6.73-4.768,11.871-11.266,11.871c-3.879,0-7.011-1.963-8.647-5.001L63.39,406.765"/>
	<path id="path14" display="inline" fill="#231F20" d="M93.774,405.035l-8.788-21.034h4.44l6.497,16.127l6.684-16.127h4.441
		l-13.883,32.347h-4.487L93.774,405.035"/>
	<path id="path16" display="inline" fill="#231F20" d="M134.096,378.813h-8.507v-3.833h20.941v3.833h-8.413v27.952h-4.02V378.813"/>
	<path id="path18" display="inline" fill="#231F20" d="M175.697,392.695h-18.183v14.069h-4.02v-31.785h4.02v13.884h18.183v-13.884
		h4.02v31.785h-4.02V392.695"/>
	<path id="path20" display="inline" fill="#231F20" d="M189.958,406.765v-31.785h17.108v3.833h-13.089v10.051h12.154v3.832h-12.154
		v10.236h13.089v3.833L189.958,406.765"/>
	<path id="path22" display="inline" fill="#231F20" d="M239.227,392.321h-5.843v10.61h5.843c3.178,0,5.889-1.588,5.889-5.234
		C245.116,394.05,242.405,392.321,239.227,392.321z M238.759,378.813h-5.375v9.724h5.375c2.898,0,5.375-1.496,5.375-4.862
		C244.134,380.309,241.657,378.813,238.759,378.813L238.759,378.813z M229.363,374.979h9.442c5.375,0,9.488,3.179,9.488,8.228
		c0,3.599-1.823,5.983-4.487,7.151c3.225,1.169,5.515,3.833,5.515,7.76c0,5.469-4.393,8.647-10.095,8.647h-9.864L229.363,374.979"/>
	<path id="path24" display="inline" fill="#231F20" d="M260.216,406.765v-31.785h17.108v3.833h-13.089v10.051h12.154v3.832h-12.154
		v10.236h13.089v3.833L260.216,406.765"/>
	<path id="path26" display="inline" fill="#231F20" d="M294.48,394.004h10.191l-5.095-13.743L294.48,394.004z M305.979,397.883
		h-12.855l-3.225,8.881h-4.534l11.967-31.785h4.533l11.967,31.785h-4.534L305.979,397.883"/>
	<path id="path28" display="inline" fill="#231F20" d="M344.778,405.035c-2.384,1.403-5.282,2.197-8.366,2.197
		c-9.304,0-16.362-7.057-16.362-16.358c0-9.303,7.058-16.361,16.362-16.361c3.084,0,5.982,0.794,8.366,2.197v4.72
		c-2.15-1.823-5.048-2.944-8.366-2.944c-6.919,0-12.155,5.468-12.155,12.388c0,6.964,5.188,12.387,12.155,12.387
		c3.318,0,6.263-1.122,8.366-2.898V405.035"/>
	<path id="path30" display="inline" fill="#231F20" d="M377.968,392.695h-18.183v14.069h-4.02v-31.785h4.02v13.884h18.183v-13.884
		h4.019v31.785h-4.019V392.695"/>
	<path id="path32" display="inline" fill="#231F20" d="M195.006,322.984h24.702V181.582h-24.702V322.984"/>
	<path id="path34" display="inline" fill="#231F20" d="M607.255,322.984h24.702V181.582h-24.702V322.984"/>
	<path id="path36" display="inline" fill="#231F20" d="M559.181,44.292h-24.702v137.29h-56.99V44.292h-24.702v137.29H423.61v24.701
		h29.178v116.701h24.702V206.283h27.815h1.361h27.815v116.701h24.702V206.283h29.176v-24.701h-29.176V44.292"/>
	<path id="path38" display="inline" fill="#231F20" d="M207.357,130.441c-9.277,0-16.824-7.547-16.824-16.825
		c0-9.277,7.547-16.823,16.824-16.823s16.823,7.546,16.823,16.823C224.18,122.894,216.634,130.441,207.357,130.441z M207.357,72.091
		c-22.521,0-40.845,18.324-40.845,40.845c0,22.523,18.324,40.846,40.845,40.846s40.845-18.323,40.845-40.846
		C248.201,90.415,229.877,72.091,207.357,72.091"/>
	<path id="path40" display="inline" fill="#231F20" d="M619.606,130.441c-9.277,0-16.823-7.547-16.823-16.825
		c0-9.277,7.546-16.823,16.823-16.823c9.277,0,16.824,7.546,16.824,16.823C636.43,122.894,628.883,130.441,619.606,130.441z
		 M619.606,72.091c-22.521,0-40.845,18.324-40.845,40.845c0,22.523,18.324,40.846,40.845,40.846
		c22.522,0,40.845-18.323,40.845-40.846C660.45,90.415,642.128,72.091,619.606,72.091"/>
	<path id="path42" display="inline" fill="#231F20" d="M105.405,298.282c-25.366,0-46.001-20.635-46.001-46.001
		c0-25.364,20.635-45.998,46.001-45.998c25.365,0,46.001,20.635,46.001,45.998C151.406,277.647,130.771,298.282,105.405,298.282
		L105.405,298.282z M105.405,181.581c-38.985,0-70.703,31.715-70.703,70.7s31.718,70.704,70.703,70.704s70.703-31.719,70.703-70.704
		S144.39,181.581,105.405,181.581"/>
	<path id="path44" display="inline" fill="#231F20" d="M10,181.581V460.27h24.702V181.581H10"/>
	<path id="path46" display="inline" fill="#231F20" d="M309.308,298.282c-25.365,0-46.001-20.635-46.001-46.001
		c0-25.364,20.636-45.998,46.001-45.998c25.366,0,46.001,20.635,46.001,45.998C355.309,277.647,334.674,298.282,309.308,298.282
		L309.308,298.282z M309.308,181.58c-38.985,0-70.703,31.717-70.703,70.701s31.718,70.703,70.703,70.703
		s70.704-31.718,70.704-70.703S348.293,181.58,309.308,181.58"/>
	<path id="path48" display="inline" fill="#231F20" d="M380.012,252.281v70.703h24.702V181.58h-24.702V252.281"/>
</g>
<g display="none">
	<path display="inline" d="M2.806,31.17V17.599H1.42v0H1.055c0.01,2.3,0.004,5.489,0.004,7.6c0,2.371,0.013,4.741-0.011,7.112
		c-0.001,0.132,0.01,0.232,0.037,0.308H1.42h9.547h0.137v-1.387H2.822C2.816,31.212,2.811,31.192,2.806,31.17z"/>
	<path display="inline" d="M17.887,27.674l6.874-10.075h-1.7c-0.051,0.051-0.1,0.111-0.148,0.183
		c-0.749,1.131-1.536,2.454-2.309,3.568c-1.165,1.678-2.331,3.355-3.513,5.055c-0.096-0.127-0.171-0.223-0.242-0.323
		c-1.91-2.703-3.819-5.625-5.731-8.327c-0.036-0.051-0.068-0.105-0.103-0.156H9.085l7.04,10.159
		c0.001,1.872,0.002,4.419,0.002,4.812c0,0.017,0,0.032,0,0.048h1.76C17.886,32.119,17.886,29.516,17.887,27.674z"/>
	<path display="inline" d="M36.293,31.17V17.599h-1.387v0h-0.365c0.01,2.3,0.004,5.489,0.004,7.6c0,2.371,0.013,4.741-0.011,7.112
		c-0.001,0.132,0.01,0.232,0.037,0.308h0.335h9.547h0.137v-1.387h-8.281C36.303,31.212,36.298,31.192,36.293,31.17z"/>
	<path display="inline" d="M63.382,32.235c-2.173-4.338-6.908-14.313-7.236-14.637h-0.713h-0.981h-0.765
		c-0.046,0.058-0.088,0.128-0.129,0.211c-0.645,1.305-1.293,2.825-1.942,4.128c-0.501,1.003-1.033,2.068-1.523,3.051
		c-0.349,0.699-0.698,1.398-1.047,2.097c-0.909,1.819-1.821,3.638-2.771,5.534h1.769l2.381-4.769h9.036l2.381,4.769h1.727
		C63.5,32.477,63.442,32.355,63.382,32.235z M51.144,26.406l3.798-7.825l3.798,7.825H51.144z"/>
	<rect x="23.945" y="25.326" display="inline" width="7.845" height="1.087"/>
</g>
<g display="none">
	<path display="inline" fill="#8C714C" d="M57.503,27.375l6.728-9.862h-1.664c-0.05,0.05-0.098,0.109-0.144,0.179
		c-0.733,1.107-1.503,2.402-2.26,3.492c-1.14,1.642-2.282,3.284-3.439,4.948c-0.094-0.125-0.168-0.218-0.237-0.316
		c-1.87-2.646-3.738-5.506-5.61-8.15c-0.035-0.05-0.067-0.103-0.101-0.153h-1.888l6.891,9.944c0.001,1.832,0.002,4.325,0.002,4.71
		c0,0.016,0,0.031,0,0.047h1.722C57.502,31.726,57.503,29.178,57.503,27.375z"/>
	<path display="inline" fill="#8C714C" d="M22.128,30.796V17.513h-1.357v0h-0.357c0.01,2.251,0.004,5.373,0.004,7.439
		c0,2.32,0.012,4.641-0.011,6.961c-0.001,0.129,0.01,0.227,0.036,0.301h0.328h9.345h0.134v-1.357h-8.106
		C22.138,30.838,22.133,30.818,22.128,30.796z"/>
	<path display="inline" fill="#8C714C" d="M80.107,31.84c-2.127-4.247-6.761-14.01-7.083-14.326h-0.698h-0.96h-0.749
		c-0.045,0.057-0.086,0.125-0.126,0.206c-0.631,1.277-1.265,2.765-1.901,4.04c-0.49,0.981-1.011,2.025-1.491,2.986
		c-0.342,0.684-0.683,1.368-1.025,2.052c-0.89,1.781-1.783,3.56-2.712,5.416h1.731l2.33-4.668h8.845l2.33,4.668h1.69
		C80.222,32.076,80.165,31.956,80.107,31.84z M68.128,26.134l3.717-7.659l3.717,7.659H68.128z"/>
	<path display="inline" fill="#8C714C" d="M42.527,17.513h-0.698h-0.96H40.12c-0.045,0.057-0.086,0.125-0.126,0.206
		c-0.631,1.277-1.265,2.765-1.901,4.04c-0.49,0.981-1.011,2.025-1.491,2.986c-0.342,0.684-0.683,1.368-1.025,2.052
		c-0.89,1.781-1.783,3.56-2.712,5.416h1.731l2.33-4.668h8.845l2.33,4.668h1.69c-0.066-0.138-0.123-0.258-0.181-0.375
		C47.483,27.593,42.849,17.83,42.527,17.513z M37.632,26.134l3.717-7.659l3.717,7.659H37.632z"/>
	<path display="inline" fill="#8C714C" d="M10.273,17.513H9.574h-0.96H7.866C7.821,17.57,7.78,17.639,7.74,17.719
		c-0.631,1.277-1.265,2.765-1.901,4.04c-0.49,0.981-1.011,2.025-1.491,2.986c-0.342,0.684-0.683,1.368-1.025,2.052
		c-0.89,1.781-1.783,3.56-2.712,5.416h1.731l2.33-4.668h8.845l2.33,4.668h1.69c-0.066-0.138-0.123-0.258-0.181-0.375
		C15.229,27.593,10.595,17.83,10.273,17.513z M5.377,26.134l3.717-7.659l3.717,7.659H5.377z"/>
</g>
<g>
	<path d="M12.341,28.093C12.341,28.093,12.342,28.093,12.341,28.093c0.001,2.239,0.001,4.479,0,6.718
		c0,0.312-0.137,0.529-0.389,0.627c-0.058,0.022-0.118,0.034-0.178,0.036c-0.06-0.002-0.12-0.014-0.178-0.036
		c-0.252-0.098-0.389-0.315-0.389-0.627c-0.001-2.239,0-4.479,0-6.718c0,0,0,0,0.001,0c0-2.205-0.003-4.739,0.005-6.944H0.375
		c0.007,3.502,0.003,7.386,0.006,10.887c0,0.556,0.03,1.111,0.118,1.66c0.444,2.759,1.677,5.097,3.798,6.926
		c2.196,1.893,4.694,2.839,7.449,2.824v0c0.009,0,0.018,0,0.027,0c0.009,0,0.018,0,0.027,0v0c2.756,0.016,5.253-0.931,7.449-2.824
		c2.122-1.828,3.354-4.167,3.798-6.926c0.088-0.549,0.118-1.104,0.118-1.66c0.002-3.501-0.001-7.385,0.006-10.887H12.336
		C12.344,23.353,12.341,25.888,12.341,28.093z"/>
	<rect x="0.375" y="6.633" width="4.04" height="8.945"/>
	<polygon points="16.137,6.651 16.137,9.829 16.137,9.848 18.622,9.848 16.137,12.333 16.137,12.335 16.137,13.117 16.137,15.512 
		16.137,15.522 23.225,15.522 23.225,15.512 23.225,12.335 23.225,12.325 20.709,12.325 23.225,9.81 23.225,8.892 23.225,6.651 	"/>
</g>
</svg>
