<?xml version="1.0" encoding="utf-8"?>
<!-- Generator: Adobe Illustrator 17.0.0, SVG Export Plug-In . SVG Version: 6.00 Build 0)  -->
<!DOCTYPE svg PUBLIC "-//W3C//DTD SVG 1.1//EN" "http://www.w3.org/Graphics/SVG/1.1/DTD/svg11.dtd">
<svg version="1.1" id="Layer_1" xmlns="http://www.w3.org/2000/svg" xmlns:xlink="http://www.w3.org/1999/xlink" x="0px" y="0px"
	 width="154.028px" height="50px" viewBox="0 0 154.028 50" enable-background="new 0 0 154.028 50" xml:space="preserve">
<g display="none">
	<path display="inline" fill="#928479" d="M12.956,19.275c-0.41,0.66-0.941,1.19-1.754,1.297c-0.779,0.103-1.178-0.291-1.122-1.065
		c0.024-0.331,0.148-0.632,0.266-0.936c0.553-1.436,1.275-2.807,1.673-4.3c0.134-0.503,0.348-1.101-0.195-1.45
		c-0.541-0.348-1.027,0.079-1.414,0.411c-1.477,1.27-2.463,2.849-2.828,4.772c-0.091,0.479-0.158,1.026,0.346,1.332
		c0.536,0.324,1.055,0.093,1.529-0.223c0.159-0.106,0.308-0.227,0.492-0.302c-0.498,0.942-1.172,1.677-2.307,1.814
		c-0.816,0.099-1.409-0.327-1.635-1.12c-0.159-0.558-0.135-1.12,0.024-1.665c0.667-2.293,1.983-4.065,4.262-4.984
		c0.853-0.344,1.747-0.433,2.504,0.297c0.149,0.144,0.296,0.093,0.453,0.033c0.336-0.127,0.672-0.252,1.135-0.425
		c-0.348,0.871-0.65,1.633-0.958,2.394c-0.516,1.277-1.039,2.55-1.547,3.83c-0.104,0.262-0.32,0.617-0.079,0.81
		c0.276,0.221,0.55-0.119,0.805-0.267C12.729,19.455,12.84,19.36,12.956,19.275"/>
	<path display="inline" fill="#928479" d="M82.059,19.339c-0.394,0.64-0.914,1.13-1.684,1.232c-0.818,0.109-1.27-0.356-1.117-1.162
		c0.156-0.826,0.582-1.558,0.878-2.336c0.355-0.93,0.836-1.816,1.053-2.793c0.111-0.499,0.345-1.103-0.194-1.456
		c-0.541-0.356-1.025,0.078-1.415,0.405c-1.424,1.191-2.322,2.723-2.803,4.501c-0.038,0.138-0.045,0.287-0.05,0.432
		c-0.014,0.434-0.086,0.909,0.365,1.176c0.478,0.284,0.954,0.128,1.392-0.139c0.216-0.132,0.412-0.296,0.617-0.446
		c-0.257,1.043-1.628,2.002-2.68,1.874c-0.716-0.087-1.219-0.61-1.309-1.391c-0.059-0.507-0.051-1.017,0.105-1.509
		c0.708-2.232,2.004-3.98,4.249-4.875c0.856-0.341,1.75-0.425,2.504,0.304c0.153,0.148,0.299,0.082,0.453,0.025
		c0.334-0.124,0.669-0.248,1.132-0.42c-0.43,1.067-0.811,2.016-1.194,2.964c-0.434,1.075-0.869,2.15-1.303,3.226
		c-0.034,0.084-0.079,0.166-0.096,0.254c-0.041,0.207-0.19,0.459,0.012,0.612c0.201,0.152,0.408-0.05,0.592-0.153
		C81.737,19.569,81.895,19.449,82.059,19.339"/>
	<path display="inline" fill="#928479" d="M54.056,18.064c0.02-2.276,1.461-4.481,3.414-5.191c0.339-0.123,0.702-0.209,1.06-0.249
		c1.468-0.163,2.55,0.675,2.658,2.155c0.171,2.355-1.406,5.065-3.792,5.767c-0.588,0.173-1.192,0.2-1.783,0.038
		C54.579,20.298,54.044,19.41,54.056,18.064 M59.719,14.319c-0.034-0.223-0.051-0.497-0.119-0.758
		c-0.2-0.776-0.813-1.017-1.511-0.606c-0.336,0.198-0.592,0.481-0.812,0.796c-0.74,1.06-1.181,2.24-1.422,3.499
		c-0.16,0.839-0.325,1.682-0.06,2.527c0.219,0.7,0.844,0.917,1.474,0.531c0.366-0.225,0.63-0.552,0.853-0.907
		C59.094,17.862,59.531,16.156,59.719,14.319"/>
	<path display="inline" fill="#928479" d="M3.713,19.187c-0.434,0.652-0.976,1.201-1.787,1.367
		c-0.808,0.166-1.223-0.214-1.161-1.027c0.032-0.424,0.204-0.805,0.362-1.19c1.155-2.815,2.313-5.63,3.469-8.445
		C4.779,9.448,4.97,8.997,4.261,8.758c0.738,0,1.477-0.022,2.214,0.008c0.444,0.018,0.167,0.32,0.108,0.467
		c-0.7,1.749-1.419,3.491-2.128,5.236C3.8,16.08,3.148,17.692,2.503,19.306c-0.07,0.174-0.233,0.399-0.036,0.547
		c0.187,0.139,0.377-0.055,0.539-0.16C3.249,19.537,3.478,19.357,3.713,19.187"/>
	<path display="inline" fill="#928479" d="M97.124,19.075c-0.486,0.662-1.085,1.207-1.897,1.446
		c-0.881,0.258-1.472-0.277-1.169-1.133c0.471-1.331,1.047-2.625,1.58-3.935c0.171-0.42,0.352-0.836,0.522-1.256
		c0.072-0.178,0.244-0.4,0.05-0.545c-0.178-0.133-0.37,0.072-0.537,0.169c-0.213,0.123-0.415,0.267-0.648,0.362
		c0.516-0.582,1.092-1.094,1.838-1.351c0.807-0.277,1.406,0.272,1.184,1.108c-0.28,1.053-0.802,2.019-1.204,3.029
		c-0.308,0.775-0.645,1.538-0.962,2.31c-0.06,0.145-0.162,0.332-0.009,0.454c0.152,0.121,0.309-0.019,0.443-0.106
		C96.587,19.448,96.854,19.259,97.124,19.075"/>
	<path display="inline" fill="#928479" d="M42.241,14.361c0.491-0.594,1.051-1.098,1.744-1.433c0.415-0.2,0.851-0.281,1.226,0.063
		c0.359,0.329,0.318,0.761,0.155,1.161c-0.618,1.527-1.255,3.046-1.884,4.569c-0.076,0.184-0.155,0.367-0.226,0.553
		c-0.056,0.147-0.191,0.322-0.04,0.45c0.172,0.148,0.339-0.019,0.487-0.11c0.231-0.143,0.451-0.3,0.696-0.465
		c-0.308,0.689-1.569,1.481-2.272,1.434c-0.468-0.031-0.735-0.276-0.759-0.758c-0.016-0.335,0.079-0.641,0.207-0.946
		c0.652-1.552,1.304-3.105,1.944-4.662c0.07-0.169,0.272-0.379,0.091-0.541c-0.207-0.185-0.405,0.047-0.58,0.151
		C42.759,13.99,42.504,14.182,42.241,14.361"/>
	<path display="inline" fill="#928479" d="M88.228,14.549c0.596-0.83,1.264-1.586,2.313-1.862c1.227-0.323,2.061,0.354,1.999,1.611
		c-0.031,0.628-0.275,1.198-0.502,1.77c-0.376,0.943-0.764,1.882-1.14,2.825c-0.06,0.15-0.095,0.312-0.129,0.47
		c-0.026,0.124-0.057,0.273,0.055,0.358c0.115,0.087,0.245,0.003,0.355-0.059c0.181-0.103,0.359-0.213,0.563-0.278
		c-0.4,0.532-0.903,0.919-1.567,1.041c-0.65,0.118-1.056-0.254-1.042-0.912c0.007-0.334,0.134-0.635,0.249-0.94
		c0.472-1.255,1.081-2.458,1.429-3.759c0.104-0.389,0.221-0.82-0.156-1.11c-0.373-0.287-0.804-0.154-1.196,0.022
		C89.004,13.927,88.636,14.257,88.228,14.549"/>
	<path display="inline" fill="#928479" d="M69.926,19.265c-0.336,0.531-0.785,0.914-1.38,1.098
		c-0.892,0.275-1.486-0.243-1.241-1.139c0.18-0.66,0.478-1.289,0.724-1.931c0.284-0.744,0.573-1.487,0.85-2.234
		c0.062-0.168,0.103-0.349,0.123-0.527c0.092-0.795-0.283-1.119-1.071-0.933c-0.307,0.072-0.576,0.225-0.826,0.41
		c-0.242,0.179-0.478,0.367-0.745,0.514c0.629-0.82,1.295-1.595,2.369-1.855c1.194-0.289,2.035,0.415,1.941,1.633
		c-0.073,0.94-0.522,1.764-0.854,2.623c-0.294,0.76-0.599,1.516-0.884,2.279c-0.059,0.159-0.166,0.37,0.012,0.506
		c0.18,0.137,0.34-0.038,0.492-0.125C69.605,19.488,69.763,19.373,69.926,19.265"/>
	<path display="inline" fill="#928479" d="M30.537,19.287c-0.439,0.592-0.941,1.121-1.737,1.177
		c-0.65,0.046-0.943-0.258-0.915-0.909c0.015-0.331,0.123-0.637,0.24-0.943c0.447-1.168,0.91-2.33,1.325-3.509
		c0.156-0.443,0.414-0.985-0.082-1.354c-0.479-0.357-0.986-0.085-1.427,0.183c-0.331,0.202-0.629,0.458-0.972,0.652
		c0.645-0.851,1.32-1.669,2.449-1.911c1.094-0.235,1.852,0.391,1.802,1.495c-0.047,1.036-0.525,1.951-0.865,2.904
		c-0.262,0.734-0.544,1.46-0.805,2.194c-0.056,0.159-0.188,0.367,0.004,0.498c0.174,0.119,0.343-0.036,0.493-0.134
		C30.215,19.519,30.375,19.401,30.537,19.287"/>
	<path display="inline" fill="#928479" d="M22.182,14.429c0.584-0.847,1.29-1.539,2.342-1.739c1.215-0.231,1.973,0.467,1.823,1.679
		c-0.156,1.26-0.781,2.367-1.197,3.542c-0.242,0.683-0.559,1.34-0.783,2.028c-0.139,0.427-0.365,0.54-0.795,0.527
		c-1.008-0.03-0.994-0.002-0.648-0.949c0.546-1.497,1.2-2.955,1.644-4.488c0.123-0.426,0.332-0.915-0.138-1.251
		c-0.458-0.327-0.95-0.153-1.394,0.089C22.738,14.029,22.466,14.239,22.182,14.429"/>
	<path display="inline" fill="#928479" d="M38.258,12.68c0.158,0.042,0.378,0.033,0.463,0.135c0.554,0.662,1.129,0.309,1.709,0.075
		c0.081-0.033,0.157-0.096,0.307-0.003c-0.302,0.753-0.609,1.517-0.916,2.28c-0.514,1.277-1.03,2.553-1.543,3.83
		c-0.054,0.134-0.107,0.271-0.139,0.411c-0.031,0.139-0.071,0.299,0.053,0.411c0.137,0.123,0.285,0.025,0.403-0.043
		c0.291-0.171,0.57-0.363,0.877-0.515c-0.413,0.577-0.905,1.062-1.61,1.265c-0.998,0.287-1.606-0.29-1.328-1.289
		c0.306-1.101,0.847-2.116,1.255-3.181c0.194-0.507,0.386-1.015,0.569-1.525c0.226-0.629,0.282-1.255-0.089-1.858L38.258,12.68z"/>
	<path display="inline" fill="#928479" d="M38.269,12.671c-0.658-0.001-1.198,0.281-1.66,0.716c-1.286,1.212-2.19,2.658-2.592,4.38
		c-0.13,0.556-0.276,1.212,0.339,1.577c0.6,0.355,1.155,0.025,1.654-0.344c0.115-0.085,0.217-0.185,0.353-0.302
		c-0.294,1.061-1.531,1.977-2.57,1.937c-0.846-0.033-1.403-0.622-1.478-1.582c-0.051-0.643,0.058-1.268,0.302-1.861
		c0.797-1.946,2.006-3.524,4.04-4.328c0.507-0.2,1.042-0.335,1.6-0.183C38.258,12.68,38.269,12.671,38.269,12.671"/>
	<path display="inline" fill="#928479" d="M63.43,14.039c0.485-0.498,0.98-0.964,1.649-1.181c0.711-0.231,1.157,0.162,1.008,0.903
		c-0.205,1.017-0.704,1.934-1.063,2.899c-0.398,1.068-0.861,2.112-1.248,3.183c-0.166,0.46-0.385,0.644-0.9,0.618
		c-0.957-0.05-0.958-0.013-0.609-0.908c0.658-1.685,1.319-3.369,1.969-5.057c0.08-0.207,0.306-0.47,0.112-0.645
		c-0.228-0.206-0.457,0.072-0.675,0.18C63.611,14.059,63.557,14.127,63.43,14.039"/>
	<path display="inline" fill="#928479" d="M85.281,14.19c0.356-0.527,0.82-0.931,1.375-1.217c0.349-0.18,0.738-0.295,1.089-0.037
		c0.378,0.277,0.271,0.701,0.169,1.055c-0.155,0.537-0.381,1.055-0.587,1.577c-0.558,1.416-1.146,2.82-1.669,4.249
		c-0.179,0.49-0.413,0.667-0.938,0.642c-0.929-0.045-0.926-0.011-0.586-0.881c0.658-1.687,1.316-3.375,1.962-5.067
		c0.084-0.219,0.334-0.501,0.089-0.683c-0.222-0.166-0.462,0.106-0.678,0.229C85.431,14.099,85.356,14.145,85.281,14.19"/>
	<path display="inline" fill="#928479" d="M50.774,12.64c-0.98,0.691-1.163,1.442-0.565,2.518c0.379,0.681,0.846,1.315,1.216,2.001
		c0.43,0.797,0.514,1.644-0.027,2.424c-0.565,0.814-1.434,1.03-2.449,1.075c1.31-0.931,1.487-1.777,0.707-3.142
		c-0.297-0.52-0.636-1.018-0.911-1.549C47.844,14.222,48.788,12.686,50.774,12.64"/>
	<path display="inline" fill="#928479" d="M18.848,14.32c0.38-0.531,0.854-0.983,1.421-1.322c0.42-0.251,0.89-0.426,1.334-0.1
		c0.461,0.338,0.309,0.828,0.141,1.247c-0.799,2.004-1.632,3.995-2.429,6c-0.158,0.399-0.454,0.293-0.724,0.296
		c-0.943,0.012-0.944,0.006-0.604-0.85c0.669-1.685,1.339-3.37,2.007-5.056c0.06-0.151,0.115-0.305,0.162-0.461
		c0.04-0.136,0.111-0.296-0.041-0.399c-0.142-0.096-0.282-0.002-0.404,0.076C19.42,13.937,19.136,14.13,18.848,14.32"/>
	<path display="inline" fill="#928479" d="M48.137,20.606c-1.327-0.233-1.962-1.059-1.807-2.224
		c0.075-0.562,0.484-1.011,0.996-1.075c0.357-0.044,0.658,0.077,0.819,0.405c0.154,0.313,0.063,0.607-0.199,0.826
		C46.979,19.345,47,19.877,48.137,20.606"/>
	<path display="inline" fill="#928479" d="M99.13,10.784c0.002,0.547-0.415,0.966-0.956,0.961c-0.532-0.005-0.963-0.447-0.952-0.975
		c0.011-0.515,0.419-0.919,0.939-0.931C98.71,9.826,99.128,10.234,99.13,10.784"/>
	<path display="inline" fill="#928479" d="M46.507,10.791c-0.001,0.537-0.434,0.962-0.971,0.953
		c-0.528-0.009-0.965-0.462-0.95-0.982c0.015-0.51,0.431-0.914,0.951-0.924C46.079,9.828,46.508,10.249,46.507,10.791"/>
	<path display="inline" fill="#928479" d="M51.424,12.65c0.895,0.024,1.589,0.51,1.767,1.236c0.163,0.666-0.25,1.268-0.838,1.222
		c-0.545-0.043-0.794-0.482-0.545-0.964C52.218,13.349,52.16,13.12,51.424,12.65"/>
	<path display="inline" fill="#928479" d="M46.829,33.734c0.188-0.108,0.32-0.235,0.446-0.366c0.511-0.526,1.077-0.992,1.609-1.495
		c0.069-0.066,0.137-0.136,0.193-0.213c0.097-0.131,0.242-0.214,0.37-0.13c0.134,0.088,0.128,0.283,0.048,0.41
		c-0.121,0.191-0.187,0.404-0.29,0.601c-0.142,0.27-0.155,0.564-0.081,0.855c0.06,0.233,0.223,0.322,0.483,0.255
		c0.544-0.14,1.042-0.378,1.518-0.681c0.426-0.271,0.669-0.67,0.935-1.073c0.313-0.476,0.707-0.888,1.236-1.144
		c0.131-0.063,0.28-0.107,0.378,0.011c0.108,0.13,0.158,0.311,0.03,0.463c-0.434,0.513-0.736,1.143-1.337,1.513
		c-0.13,0.08-0.215,0.224-0.346,0.319c-0.096,0.07-0.012,0.179,0.057,0.241c0.179,0.162,0.383,0.233,0.636,0.206
		c0.806-0.085,1.501-0.453,2.193-0.832c0.049-0.027,0.094-0.06,0.143-0.087c0.122-0.069,0.22-0.102,0.118-0.304
		c-0.084-0.165-0.175-0.392-0.016-0.607c0.109-0.148,0.238-0.167,0.334,0.002c0.054,0.094,0.097,0.198,0.089,0.318
		c-0.004,0.055,0.034,0.141,0.078,0.163c0.034,0.018,0.132-0.026,0.16-0.069c0.222-0.337,0.506-0.629,0.707-0.982
		c0.153-0.27,0.362-0.505,0.545-0.754c0.308-0.419,0.595-0.867,1.025-1.189c0.082-0.062,0.152-0.133,0.242-0.04
		c0.089,0.091,0.133,0.218,0.052,0.324c-0.168,0.219-0.359,0.42-0.495,0.663c-0.028,0.051-0.076,0.055-0.143,0.044
		c-0.157-0.025-0.279,0.011-0.365,0.187c-0.12,0.247-0.323,0.446-0.489,0.664c-0.332,0.436-0.657,0.878-0.971,1.327
		c-0.065,0.093-0.045,0.168,0.083,0.182c0.134,0.015,0.262,0.031,0.4-0.014c0.667-0.222,1.341-0.425,2.006-0.654
		c0.193-0.066,0.368-0.127,0.57-0.021c-0.056,0.233-0.296,0.2-0.44,0.258c-0.575,0.234-1.163,0.444-1.759,0.62
		c-0.314,0.092-0.644,0.23-0.988,0.047c-0.137-0.073-0.244-0.016-0.303,0.158c-0.2,0.591-0.418,1.175-0.63,1.762
		c-0.346,0.958-0.684,1.921-1.385,2.699c-0.138,0.153-0.258,0.322-0.392,0.479c-0.19,0.223-0.443,0.295-0.635,0.188
		c-0.191-0.106-0.272-0.427-0.19-0.685c0.19-0.6,0.589-1.076,0.953-1.566c0.662-0.89,1.225-1.848,1.897-2.731
		c0.066-0.086,0.128-0.176,0.159-0.307c-0.33,0.087-0.568,0.298-0.845,0.431c-0.569,0.275-1.141,0.541-1.784,0.572
		c-0.549,0.027-0.976-0.326-1.035-0.836c-0.091,0.074-0.17,0.135-0.246,0.2c-0.483,0.408-1.027,0.694-1.647,0.833
		c-0.395,0.089-0.777-0.036-0.902-0.36c-0.106-0.273-0.107-0.576-0.006-0.864c0.049-0.14,0.197-0.316,0.071-0.414
		c-0.094-0.074-0.205,0.127-0.285,0.226c-0.392,0.489-0.883,0.877-1.329,1.31c-0.113,0.11-0.23,0.221-0.356,0.315
		c-0.157,0.118-0.347,0.114-0.485-0.021c-0.129-0.125-0.097-0.304-0.004-0.442c0.17-0.252,0.249-0.554,0.442-0.792
		c0.027-0.033,0.054-0.078,0.021-0.171c-0.189,0.213-0.423,0.34-0.621,0.517c-0.44,0.396-0.922,0.742-1.379,1.117
		c-0.44,0.361-0.904,0.685-1.379,0.993c-0.521,0.338-1.052,0.665-1.619,0.926c-0.348,0.16-0.687,0.35-1.05,0.465
		c-0.525,0.167-1.053,0.349-1.63,0.254c-0.129-0.021-0.278-0.01-0.419-0.022c-0.891-0.078-1.293-0.947-1.216-1.674
		c0.079-0.749,0.375-1.421,0.686-2.093c0.388-0.836,0.893-1.603,1.386-2.375c0.222-0.348,0.479-0.676,0.735-1.004
		c0.323-0.414,0.615-0.854,0.966-1.244c0.731-0.81,1.466-1.616,2.245-2.384c0.546-0.538,1.142-0.996,1.779-1.391
		c0.589-0.365,1.218-0.716,1.966-0.654c0.579,0.048,1.105,0.195,1.382,0.777c0.057,0.12,0.081,0.245,0.049,0.388
		c-0.099,0.436-0.311,0.802-0.621,1.121c-0.325,0.334-0.668,0.649-1.005,0.97c-0.309,0.294-0.586,0.621-0.93,0.878
		c-0.292,0.218-0.525,0.503-0.809,0.726c-0.36,0.283-0.696,0.601-1.094,0.834c-0.268,0.157-0.495,0.38-0.796,0.484
		c-0.288,0.099-0.48,0.065-0.623-0.131c-0.053-0.072-0.114-0.155-0.057-0.24c0.063-0.093,0.174-0.189,0.283-0.131
		c0.264,0.143,0.471-0.001,0.673-0.114c0.726-0.408,1.392-0.897,2.004-1.466c0.366-0.341,0.794-0.615,1.137-0.983
		c0.269-0.289,0.603-0.506,0.826-0.852c0.146-0.226,0.372-0.408,0.553-0.621c0.295-0.347,0.347-0.922-0.246-1.173
		c-0.461-0.194-0.909-0.203-1.379-0.084c-0.494,0.125-0.928,0.356-1.368,0.614c-0.428,0.252-0.818,0.546-1.199,0.85
		c-0.382,0.306-0.722,0.666-1.067,1.016c-0.381,0.386-0.775,0.765-1.112,1.188c-0.355,0.447-0.734,0.875-1.074,1.336
		c-0.411,0.558-0.841,1.102-1.218,1.683c-0.316,0.487-0.606,0.992-0.877,1.505c-0.276,0.522-0.558,1.047-0.73,1.614
		c-0.125,0.411-0.202,0.834-0.141,1.271c0.099,0.71,0.372,0.971,1.062,1.107c0.564,0.111,1.088-0.011,1.612-0.173
		c0.759-0.235,1.459-0.609,2.156-0.978c0.6-0.318,1.147-0.724,1.687-1.137c0.372-0.285,0.769-0.539,1.134-0.831
		c0.596-0.479,1.156-1.003,1.737-1.501c0.131-0.112,0.203-0.28,0.381-0.352c0.097-0.039,0.099-0.184,0.153-0.277
		c0.338-0.577,0.725-1.118,1.138-1.641c0.29-0.368,0.597-0.724,0.904-1.078c0.111-0.127,0.221-0.252,0.292-0.407
		c0.029-0.064,0.054-0.141,0.151-0.125c0.118,0.02,0.217,0.084,0.255,0.192c0.021,0.061,0.036,0.144-0.034,0.22
		c-0.484,0.528-0.936,1.083-1.402,1.626c-0.425,0.495-0.787,1.033-1.182,1.546c-0.307,0.399-0.554,0.835-0.859,1.233
		C46.927,33.238,46.784,33.443,46.829,33.734 M55.084,33.476c-0.156,0.243-0.396,0.42-0.537,0.656
		c-0.137,0.227-0.277,0.456-0.416,0.682c-0.409,0.666-0.96,1.234-1.338,1.923c-0.164,0.299-0.347,0.589-0.304,0.954
		c0.02,0.173,0.128,0.181,0.233,0.098c0.34-0.27,0.605-0.613,0.883-0.943c0.162-0.192,0.21-0.454,0.355-0.636
		c0.255-0.32,0.372-0.698,0.52-1.056C54.705,34.607,54.88,34.039,55.084,33.476 M53.425,31.149
		c-0.306,0.062-0.589,0.167-0.741,0.399c-0.151,0.229-0.346,0.414-0.507,0.631c-0.092,0.125-0.176,0.246-0.196,0.401
		c-0.007,0.051-0.074,0.106-0.013,0.152c0.073,0.055,0.117-0.021,0.159-0.061c0.289-0.276,0.591-0.541,0.855-0.84
		C53.159,31.63,53.279,31.378,53.425,31.149"/>
	<path display="inline" fill="#928479" d="M28.04,32.675c0.324-0.33,0.656-0.64,1.014-0.919c0.414-0.322,0.842-0.633,1.322-0.847
		c0.294-0.131,0.619-0.177,0.943-0.094c0.207,0.053,0.243,0.236,0.261,0.411c0.014,0.132,0.051,0.197,0.19,0.137
		c0.302-0.13,0.628-0.178,0.945-0.244c0.324-0.067,0.523-0.285,0.734-0.503c0.149-0.153,0.314-0.264,0.545-0.272
		c0.149-0.005,0.221,0.067,0.267,0.18c0.05,0.123-0.062,0.166-0.115,0.25c-0.265,0.417-0.797,0.415-1.108,0.762
		c-0.3,0.335-0.619,0.654-0.905,1.003c-0.225,0.275-0.428,0.565-0.617,0.866c-0.053,0.084-0.122,0.169-0.038,0.256
		c0.074,0.077,0.162,0.016,0.243-0.019c0.843-0.363,1.629-0.824,2.326-1.421c0.333-0.285,0.632-0.61,0.939-0.923
		c0.13-0.132,0.213-0.296,0.254-0.481c0.015-0.07,0.068-0.163,0.133-0.148c0.068,0.015,0.141,0.043,0.213,0.105
		c0.328,0.283,0.035,0.507-0.066,0.712c-0.267,0.546-0.57,1.076-0.924,1.574c-0.073,0.103-0.116,0.223-0.137,0.364
		c0.233-0.138,0.448-0.27,0.668-0.392c0.095-0.053,0.225-0.131,0.299-0.009c0.078,0.128-0.078,0.17-0.156,0.22
		c-0.235,0.151-0.467,0.313-0.719,0.433c-0.375,0.179-0.511,0.551-0.744,0.845c-0.083,0.104-0.111,0.255-0.2,0.35
		c-0.411,0.438-0.699,0.978-1.142,1.385c-0.212,0.195-0.347,0.456-0.558,0.634c-0.452,0.383-0.83,0.864-1.397,1.106
		c-0.091,0.039-0.153,0.06-0.232-0.022c-0.076-0.08-0.097-0.142-0.04-0.249c0.226-0.426,0.497-0.81,0.859-1.137
		c0.49-0.442,0.979-0.888,1.419-1.382c0.282-0.317,0.555-0.64,0.901-0.892c0.327-0.238,0.517-0.578,0.691-0.931
		c0.234-0.474,0.478-0.943,0.717-1.415c0.021-0.042,0.054-0.082,0.011-0.145c-0.243,0.194-0.49,0.381-0.692,0.617
		c-0.206,0.241-0.466,0.406-0.733,0.566c-0.285,0.171-0.565,0.35-0.838,0.539c-0.274,0.19-0.582,0.303-0.89,0.412
		c-0.178,0.063-0.396,0.114-0.51-0.108c-0.098-0.19-0.088-0.406,0.044-0.579c0.294-0.384,0.615-0.749,0.904-1.137
		c0.17-0.229,0.387-0.424,0.553-0.747c-0.397,0.119-0.735,0.219-1.072,0.321c-0.044,0.013-0.048,0.056-0.066,0.091
		c-0.286,0.557-0.696,1.028-1.189,1.39c-0.388,0.285-0.796,0.59-1.313,0.647c-0.144,0.016-0.27,0.02-0.37-0.102
		c-0.104-0.127-0.008-0.224,0.048-0.324c0.316-0.571,0.832-0.928,1.355-1.288c0.317-0.217,0.66-0.37,1.003-0.53
		c0.157-0.074,0.198-0.198,0.146-0.357c-0.051-0.156-0.168-0.163-0.309-0.148c-0.566,0.06-0.998,0.391-1.454,0.685
		c-0.272,0.175-0.522,0.384-0.763,0.586c-0.368,0.308-0.679,0.694-0.971,1.079c-0.167,0.221-0.331,0.448-0.51,0.657
		c-0.172,0.201-0.324,0.412-0.456,0.637c-0.077,0.131-0.199,0.124-0.305,0.158c-0.084,0.027-0.101-0.08-0.136-0.137
		c-0.033-0.054-0.023-0.105,0.016-0.155c0.464-0.6,0.904-1.216,1.306-1.86c0.717-1.148,1.562-2.214,2.183-3.426
		c0.337-0.657,0.748-1.277,1.173-1.884c0.063-0.091,0.137-0.178,0.134-0.301c-0.001-0.065-0.031-0.162,0.083-0.162
		c0.116,0,0.252-0.048,0.342,0.055c0.065,0.074,0.073,0.178,0.009,0.267c-0.112,0.155-0.218,0.317-0.345,0.459
		c-0.241,0.269-0.432,0.573-0.623,0.874c-0.456,0.723-0.855,1.484-1.341,2.185c-0.325,0.468-0.573,0.989-0.968,1.41
		C28.164,32.34,28.142,32.529,28.04,32.675 M31.092,31.888c-0.498,0.124-0.877,0.411-1.255,0.702
		c-0.281,0.216-0.551,0.443-0.775,0.719c-0.053,0.066-0.132,0.143-0.066,0.232c0.059,0.078,0.142,0.019,0.219-0.001
		c0.289-0.076,0.531-0.25,0.776-0.402C30.47,32.841,30.822,32.413,31.092,31.888 M30.664,37.567c0.136-0.028,0.19-0.078,0.235-0.131
		c0.274-0.325,0.638-0.55,0.931-0.856c0.481-0.503,0.89-1.066,1.347-1.589c0.03-0.035,0.066-0.084,0.014-0.123
		c-0.045-0.034-0.092-0.006-0.125,0.033c-0.072,0.086-0.137,0.178-0.211,0.261c-0.547,0.612-1.159,1.161-1.721,1.758
		C30.965,37.099,30.772,37.273,30.664,37.567"/>
	<path display="inline" fill="#928479" d="M66.214,32.108c-0.1,0.037-0.193-0.009-0.276-0.042c-0.178-0.072-0.2-0.288-0.066-0.415
		c0.562-0.532,1.242-0.603,1.966-0.516c0.024,0.003,0.047,0.009,0.07,0.016c0.594,0.162,0.635,0.453,0.412,0.91
		c-0.185,0.379-0.479,0.696-0.812,0.966c-0.2,0.162-0.427,0.292-0.565,0.523c-0.072,0.122-0.214,0.163-0.328,0.234
		c-0.13,0.08-0.252,0.167-0.35,0.29c0.051,0.072,0.121,0.05,0.19,0.046c0.632-0.042,1.147,0.166,1.495,0.714
		c0.088,0.138,0.207,0.198,0.342,0.124c0.348-0.19,0.746-0.155,1.109-0.277c0.627-0.211,1.289-0.249,1.934-0.374
		c0.054-0.01,0.113-0.018,0.167-0.009c0.08,0.013,0.209-0.016,0.215,0.094c0.005,0.097-0.115,0.048-0.176,0.059
		c-0.592,0.112-1.189,0.201-1.777,0.329c-0.466,0.101-0.921,0.25-1.383,0.37c-0.154,0.04-0.176,0.106-0.131,0.258
		c0.305,1.021-0.033,1.881-0.688,2.659c-0.149,0.177-0.262,0.389-0.429,0.546c-0.602,0.565-1.152,1.19-1.891,1.599
		c-0.362,0.2-0.681,0.489-1.057,0.652c-0.502,0.218-0.968,0.504-1.488,0.695c-0.487,0.179-0.97,0.274-1.48,0.305
		c-0.672,0.041-1.464-0.452-1.066-1.485c0.306-0.793,0.811-1.433,1.443-1.961c0.789-0.659,1.603-1.295,2.511-1.793
		c0.356-0.195,0.715-0.386,1.127-0.608c-0.458,0.049-0.861,0.034-1.26,0.112c-0.198,0.039-0.406,0.015-0.611,0.053
		c-0.584,0.108-1.169,0.23-1.76,0.276c-0.335,0.026-0.655,0.117-0.987,0.142c-0.366,0.028-0.73,0.088-1.096,0.112
		c-0.16,0.011-0.3,0.08-0.46,0.094c-0.641,0.058-1.263,0.242-1.906,0.311c-0.166,0.018-0.324,0.02-0.486,0.013
		c-0.099-0.004-0.181-0.032-0.172-0.149c0.008-0.105,0.057-0.173,0.18-0.181c0.372-0.025,0.745-0.047,1.114-0.094
		c0.48-0.061,0.958-0.132,1.433-0.222c0.5-0.095,1.002-0.174,1.508-0.218c0.56-0.049,1.117-0.121,1.671-0.211
		c1.075-0.176,2.158-0.282,3.242-0.376c0.564-0.049,1.076-0.255,1.598-0.439c0.038-0.013,0.078-0.022,0.111-0.043
		c0.108-0.067,0.335-0.012,0.326-0.161c-0.01-0.174-0.162-0.364-0.322-0.42c-0.3-0.106-0.62-0.278-0.947-0.126
		c-0.293,0.136-0.642,0.088-0.908,0.301c-0.122,0.098-0.279,0.017-0.418,0.051c-0.051,0.012-0.084-0.064-0.09-0.123
		c-0.007-0.074-0.002-0.144,0.08-0.181c0.829-0.379,1.458-1.028,2.127-1.615c0.332-0.291,0.682-0.596,0.824-1.047
		c0.086-0.272,0.001-0.374-0.282-0.408c-0.542-0.066-1.011,0.122-1.476,0.365C66.093,31.919,66.253,32.019,66.214,32.108
		 M61.299,41.61c0.352,0.043,0.701-0.073,1.037-0.184c0.595-0.198,1.162-0.467,1.712-0.778c0.759-0.428,1.518-0.847,2.162-1.444
		c0.663-0.613,1.262-1.274,1.653-2.101c0.27-0.571,0.311-1.137,0.025-1.715c-0.045-0.09-0.073-0.147-0.193-0.099
		c-0.25,0.1-0.507,0.183-0.759,0.278c-0.059,0.022-0.18,0.015-0.079,0.147c0.068,0.089-0.025,0.154-0.098,0.179
		c-0.261,0.091-0.519,0.238-0.805,0.081c-0.05-0.027-0.099-0.018-0.136,0.008c-0.32,0.225-0.706,0.314-1.042,0.519
		c-0.445,0.272-0.915,0.501-1.348,0.799c-0.547,0.376-1.084,0.765-1.591,1.19c-0.285,0.239-0.519,0.542-0.764,0.827
		c-0.351,0.408-0.633,0.849-0.73,1.4c-0.077,0.438,0.064,0.732,0.489,0.86C60.98,41.622,61.128,41.655,61.299,41.61"/>
	<path display="inline" fill="#928479" d="M58.053,27.898c-0.308-0.323-0.29-0.446,0.052-0.669c0.304-0.198,0.644-0.289,0.986-0.395
		c0.327-0.101,0.655-0.202,0.982-0.305c0.734-0.231,1.46-0.483,2.227-0.608c0.567-0.092,1.137-0.162,1.702-0.255
		c0.522-0.087,1.047-0.119,1.57-0.172c0.513-0.052,1.031-0.081,1.544-0.129c0.845-0.079,1.688-0.03,2.532-0.045
		c0.724-0.013,1.45-0.021,2.172,0.02c0.283,0.016,0.587-0.031,0.851,0.082c0.241,0.104,0.473,0.002,0.706,0.044
		c0.09,0.016,0.198,0.02,0.216,0.112c0.02,0.101-0.043,0.226-0.135,0.253c-0.12,0.035-0.235,0.087-0.365,0.104
		c-0.295,0.039-0.588,0.105-0.878,0.173c-0.106,0.025-0.196,0.002-0.333-0.014c0.256-0.229,0.558-0.253,0.837-0.374
		c-0.485-0.142-0.964-0.156-1.446-0.152c-0.34,0.003-0.685,0.015-1.018-0.002c-0.548-0.028-1.093,0.014-1.639-0.011
		c-0.24-0.011-0.426,0.028-0.51,0.311c-0.061,0.207-0.266,0.344-0.424,0.479c-0.375,0.321-0.55,0.789-0.884,1.127
		c-0.295,0.298-0.494,0.66-0.743,0.987c-0.393,0.517-0.83,1.003-1.136,1.587c-0.131,0.252-0.329,0.472-0.512,0.693
		c-0.454,0.548-0.795,1.174-1.229,1.735c-0.261,0.338-0.496,0.687-0.721,1.05c-0.339,0.548-0.646,1.107-0.849,1.719
		c-0.017,0.052-0.037,0.109-0.034,0.163c0.005,0.082-0.027,0.189,0.085,0.226c0.103,0.034,0.133-0.061,0.179-0.123
		c0.14-0.187,0.335-0.333,0.393-0.58c0.017-0.074,0.118-0.115,0.202-0.062c0.106,0.065,0.053,0.188,0.017,0.235
		c-0.169,0.217-0.227,0.502-0.452,0.689c-0.141,0.117-0.263,0.26-0.455,0.184c-0.187-0.074-0.29-0.243-0.329-0.439
		c-0.032-0.161,0.011-0.316,0.06-0.47c0.177-0.556,0.502-1.03,0.821-1.51c0.327-0.493,0.68-0.966,1.023-1.447
		c0.3-0.421,0.614-0.832,0.913-1.254c0.304-0.429,0.586-0.872,0.895-1.297c0.438-0.603,0.899-1.19,1.333-1.794
		c0.489-0.68,1.024-1.328,1.467-2.042c0.062-0.1,0.093-0.151-0.075-0.172c-0.225-0.027-0.444,0.006-0.663,0.021
		c-0.623,0.043-1.244,0.108-1.863,0.184c-0.561,0.07-1.126,0.11-1.684,0.188c-0.452,0.063-0.9,0.181-1.355,0.249
		c-0.483,0.072-0.926,0.292-1.412,0.367c-0.125,0.019-0.292,0.082-0.427,0.151c-0.32,0.165-0.667,0.251-1.008,0.356
		c-0.373,0.115-0.693,0.329-1.016,0.537C58.123,27.669,58.1,27.781,58.053,27.898"/>
	<path display="inline" fill="#928479" d="M69.967,32.924c-0.273,0.42-0.703,0.608-1.034,0.913
		c-0.138,0.128-0.304,0.238-0.516,0.219c-0.183-0.017-0.289-0.099-0.246-0.296c0.022-0.1,0.017-0.208,0.085-0.296
		c0.402-0.513,0.714-1.081,1.009-1.659c0.082-0.161,0.244-0.237,0.342-0.383c0.064-0.094,0.201-0.055,0.273,0.03
		c0.083,0.099,0.041,0.219-0.037,0.296c-0.382,0.382-0.66,0.845-0.997,1.261c-0.151,0.186-0.26,0.402-0.35,0.625
		c-0.017,0.043-0.049,0.087-0.004,0.131c0.047,0.047,0.087,0.006,0.129-0.012c0.265-0.112,0.448-0.337,0.687-0.487
		c0.521-0.327,0.877-0.822,1.276-1.273c0.077-0.087,0.165-0.217,0.292-0.088c0.117,0.119,0.013,0.224-0.08,0.299
		c-0.26,0.21-0.399,0.486-0.48,0.804c-0.026,0.103-0.046,0.199,0.035,0.263c0.08,0.063,0.139-0.039,0.205-0.075
		c0.686-0.369,1.336-0.794,1.971-1.243c0.049-0.034,0.111-0.094,0.17-0.032c0.067,0.072,0.002,0.146-0.046,0.185
		c-0.215,0.172-0.411,0.368-0.663,0.494c-0.162,0.081-0.322,0.179-0.459,0.297c-0.231,0.199-0.515,0.318-0.741,0.524
		c-0.141,0.129-0.337,0.154-0.517,0.156c-0.215,0.002-0.261-0.186-0.269-0.351C69.997,33.143,70.007,33.059,69.967,32.924"/>
</g>
<g display="none">
	<path display="inline" d="M14.822,27.693c0,0-0.125,1.192-0.155,2.599s0.039,2.793,0.039,2.793l-0.001,0.038l-0.026,0.027
		c-0.404,0.42-0.838,0.788-1.288,1.092c-1.314,0.886-2.849,1.355-4.439,1.355C4.568,35.597,1,32.03,1,27.645
		s3.568-7.951,7.952-7.951c2.159,0,4.18,0.854,5.691,2.404l0.065,0.067l-1.097,1.097l-0.065-0.089
		c-1.156-1.578-2.84-2.484-4.622-2.484c-3.339,0-6.057,3.144-6.057,7.009c0,3.864,2.717,7.009,6.057,7.009
		c1.632,0,3.162-0.742,4.311-2.091c0,0,0.079-0.916,0.047-2.323c-0.032-1.407-0.157-2.591-0.157-2.591L14.822,27.693z M30.02,19.692
		h-0.363h-0.363c0,0-2.616,6.63-3.589,8.922c-0.973,2.292-3.207,7.085-3.207,7.085h1.824c0,0,1.822-4.81,2.779-7.085
		c0.956-2.276,2.557-5.727,2.557-5.727s1.636,3.451,2.584,5.727s2.753,7.085,2.753,7.085h1.824c0,0-1.797-3.765-3.207-7.085
		C32.2,25.293,30.02,19.692,30.02,19.692z M62.561,19.692h-0.363h-0.363c0,0-2.616,6.63-3.589,8.922s-3.207,7.085-3.207,7.085h1.824
		c0,0,1.822-4.81,2.779-7.085c0.956-2.276,2.557-5.727,2.557-5.727s1.636,3.451,2.584,5.727c0.948,2.276,2.753,7.085,2.753,7.085
		h1.824c0,0-1.797-3.765-3.207-7.085S62.561,19.692,62.561,19.692z M46.782,35.7c0,0-0.155-0.802-0.155-8.004
		s0.153-8.004,0.153-8.004h-1.706c0,0,0.153,0.802,0.153,8.004c0,7.203-0.152,8.004-0.152,8.004H46.782z M35.862,45.006
		c-0.806,0.965-1.876,1.653-3.052,1.653c-0.794,0-1.911-0.588-3-1.058c-1.118-0.5-2.265-0.941-3.264-0.941
		c-1.588,0-3.199,1.134-3.846,2.369l0.764,0.754c0.608-0.974,1.641-1.653,2.935-1.653c1.352,0,2.441,0.5,3.382,1.029
		c0.97,0.529,1.911,0.97,3,0.97c1.58,0,2.953-1.134,3.835-2.369L35.862,45.006z M51.277,6.497c0,2.921-2.43,5.35-5.35,5.35
		s-5.35-2.429-5.35-5.35s2.43-5.35,5.35-5.35S51.277,3.576,51.277,6.497z M49.576,6.497c0-2.465-1.6-4.404-3.65-4.404
		c-2.05,0-3.65,1.939-3.65,4.404s1.6,4.404,3.65,4.404C47.976,10.9,49.576,8.961,49.576,6.497z"/>
</g>
<g display="none">
	<defs>
		<rect id="SVGID_1_" y="7.894" width="74.5" height="34.872"/>
	</defs>
	<clipPath id="SVGID_2_" display="inline">
		<use xlink:href="#SVGID_1_"  overflow="visible"/>
	</clipPath>
	<path display="inline" clip-path="url(#SVGID_2_)" d="M9.568,31.651v-0.143c0.485-0.05,0.925-0.166,1.318-0.349
		c0.539-0.25,0.987-0.593,1.344-1.027c0.356-0.434,0.626-0.945,0.809-1.534c0.183-0.588,0.275-1.211,0.275-1.867
		c0-0.656-0.092-1.278-0.275-1.867c-0.183-0.588-0.453-1.1-0.809-1.534c-0.357-0.434-0.805-0.777-1.344-1.027
		c-0.54-0.251-1.166-0.376-1.879-0.376h-2.92v9.609v10.535c0,0-5.753,0-5.753,0v-0.116h0.838c0.347,0,0.674-0.024,0.983-0.072
		c0.308-0.048,0.573-0.159,0.795-0.333c0.221-0.174,0.4-0.424,0.535-0.752c0.135-0.328,0.202-0.772,0.202-1.331V24.444
		c0-0.579-0.068-1.032-0.202-1.36c-0.135-0.328-0.313-0.579-0.535-0.753c-0.222-0.174-0.487-0.284-0.795-0.333
		c-0.308-0.048-0.636-0.072-0.983-0.072H0.335v-0.116h8.47c1.214,0,2.274,0.13,3.18,0.391c0.906,0.261,1.662,0.618,2.269,1.071
		c0.607,0.454,1.06,0.975,1.359,1.563c0.299,0.589,0.448,1.221,0.448,1.896c0,1.197-0.467,2.239-1.402,3.126
		c-0.935,0.888-2.044,1.383-3.914,1.615c1.117,0.039,1.808,0.267,2.656,0.556c0.848,0.289,1.556,0.671,2.125,1.143
		c0.568,0.473,0.992,1.023,1.272,1.65c0.279,0.627,0.419,1.288,0.419,1.983c0,0.733-0.154,1.418-0.462,2.055
		c-0.309,0.637-0.766,1.192-1.373,1.664c-0.607,0.473-1.373,0.849-2.298,1.129c-0.931,0.282-2.288,0.421-3.512,0.42
		c1.486-0.151,2.889-0.692,3.642-1.621c0.376-0.463,0.655-1.008,0.838-1.635c0.183-0.627,0.275-1.297,0.275-2.012
		c0-0.714-0.092-1.384-0.275-2.012c-0.183-0.627-0.462-1.172-0.838-1.635c-0.376-0.463-0.843-0.829-1.402-1.1
		c-0.559-0.27-1.205-0.405-1.937-0.405H9.568z"/>
	<path display="inline" clip-path="url(#SVGID_2_)" d="M48.964,21.811h-3.273v0.116c0.847,0,1.502,0.188,1.966,0.564
		c0.463,0.376,0.803,0.825,1.02,1.346c0.217,0.521,0.344,1.066,0.384,1.635c0.039,0.569,0.059,1.056,0.059,1.462v10.709
		L38.362,21.811H32.48v0.116h2.365c0.692,0,1.118,0.661,1.452,1.177c0.133,0.205,0.275,0.405,0.412,0.608
		c0.157,0.231,0.314,0.463,0.472,0.694c0.193,0.284,0.386,0.568,0.578,0.852c0.223,0.329,0.447,0.658,0.67,0.987
		c0.249,0.366,0.498,0.733,0.747,1.099c0.269,0.396,0.538,0.793,0.808,1.189c0.285,0.419,0.569,0.838,0.854,1.257
		c0.295,0.434,0.59,0.868,0.884,1.302c0.3,0.442,0.6,0.883,0.9,1.325c0.3,0.442,0.6,0.883,0.9,1.325
		c0.295,0.434,0.59,0.869,0.885,1.303c0.285,0.419,0.57,0.839,0.855,1.258c0.27,0.397,0.539,0.794,0.809,1.191
		c0.249,0.367,0.499,0.735,0.748,1.102l0.672,0.99c0.194,0.285,0.387,0.57,0.581,0.856c0.158,0.233,0.316,0.466,0.475,0.699
		c0.118,0.173,0.235,0.346,0.353,0.52l0.216,0.318c0.006,0.009,0.053,0.095,0.065,0.095h0.118v-4.168V26.934
		c0-0.405,0.019-0.892,0.059-1.462c0.039-0.569,0.167-1.114,0.384-1.635c0.217-0.521,0.557-0.97,1.02-1.346
		c0.463-0.376,1.118-0.564,1.966-0.564v-0.116H48.964z"/>
	<path display="inline" clip-path="url(#SVGID_2_)" d="M58.722,40.299c-0.033,0.188-0.078,0.355-0.137,0.498
		c-0.133,0.328-0.309,0.579-0.528,0.753c-0.219,0.174-0.481,0.285-0.785,0.333c-0.305,0.048-0.628,0.072-0.97,0.072h-0.828v0.116
		h5.317h0.362v-0.116V21.926h2.882c1.274,0,2.373,0.294,3.296,0.883c0.923,0.589,1.679,1.356,2.269,2.301
		c0.589,0.946,1.022,2.017,1.298,3.213c0.276,1.197,0.414,2.402,0.414,3.618c0,1.235-0.138,2.451-0.414,3.647
		c-0.276,1.197-0.709,2.268-1.298,3.213c-1.01,1.619-2.508,2.7-4.493,3.245c1.195-0.077,2.293-0.334,3.295-0.771
		c1.217-0.531,2.254-1.254,3.11-2.171c0.856-0.916,1.512-1.992,1.969-3.227c0.457-1.235,0.685-2.547,0.685-3.936
		c0-1.389-0.228-2.701-0.685-3.936c-0.457-1.235-1.113-2.31-1.969-3.227c-0.856-0.916-1.893-1.64-3.11-2.171
		c-1.218-0.53-2.578-0.796-4.081-0.796h-8.846v0.116h0.828c0.342,0,0.666,0.024,0.97,0.072c0.304,0.048,0.566,0.159,0.785,0.333
		c0.218,0.174,0.395,0.425,0.528,0.753c0.133,0.328,0.2,0.781,0.2,1.36v15.022C58.785,39.78,58.764,40.058,58.722,40.299"/>
	<polygon display="inline" clip-path="url(#SVGID_2_)" points="7.052,31.523 7.052,22.477 9.568,25.121 9.568,38.541 7.052,41.388 	
		"/>
	<polygon display="inline" clip-path="url(#SVGID_2_)" points="62.028,31.523 62.028,22.477 64.544,25.121 64.544,38.541 
		62.028,41.388 	"/>
	<path display="inline" clip-path="url(#SVGID_2_)" d="M43.665,41.406l1.099-2.599c0,0,0.008-0.018,0.015-0.036
		c-1.509-2.201-3.097-4.517-3.097-4.517s-5.92-8.549-6.026-8.703v10.253c0,0.858-0.183,1.66-0.549,2.404
		c-0.366,0.744-0.894,1.393-1.584,1.946c-0.669,0.553-1.448,0.983-2.336,1.288c-0.889,0.305-1.835,0.458-2.838,0.458
		c-1.485,0-2.671-0.524-3.559-1.574c-0.889-1.049-1.333-2.556-1.333-4.521V24.415c0-0.572,0.068-1.02,0.204-1.345
		c0.136-0.324,0.329-0.572,0.58-0.744c0.251-0.172,0.538-0.281,0.862-0.329c0.324-0.047,0.674-0.072,1.051-0.072v-0.114h-8.938
		v0.114h0.909c0.376,0,0.732,0.024,1.066,0.072c0.334,0.048,0.622,0.157,0.862,0.329c0.24,0.172,0.434,0.42,0.58,0.744
		c0.146,0.325,0.219,0.773,0.219,1.345v11.389c0,0.897,0.198,1.731,0.596,2.504c0.397,0.773,0.93,1.436,1.599,1.989
		c0.669,0.554,1.458,0.987,2.368,1.302c0.91,0.315,1.887,0.472,2.932,0.472c1.024,0,1.996-0.157,2.916-0.472
		c0.92-0.315,1.714-0.748,2.383-1.302c0.669-0.553,1.202-1.216,1.599-1.989c0.397-0.773,0.596-1.607,0.596-2.504v-5.715v-0.316
		L43.665,41.406z"/>
	<path display="inline" clip-path="url(#SVGID_2_)" d="M16.492,8.311l0.653,0.102c-0.057,0.176-0.187,0.487-0.393,0.934h3.041
		c-0.032,1.212-0.425,2.317-1.179,3.313c-0.754,0.997-2.048,1.793-3.882,2.391l-0.423-0.339c1.644-0.547,2.783-1.184,3.416-1.913
		c-0.637-0.63-1.391-1.187-2.261-1.672c-0.193,0.209-0.48,0.468-0.858,0.779l-0.508-0.294C15.283,10.707,16.081,9.607,16.492,8.311
		 M19.092,9.739H16.54c-0.258,0.429-0.494,0.764-0.707,1.005c0.935,0.555,1.683,1.094,2.243,1.619
		C18.648,11.587,18.987,10.713,19.092,9.739 M16.396,8.157L16.361,8.27c-0.401,1.262-1.19,2.35-2.346,3.234l-0.164,0.126
		l0.179,0.103l0.508,0.294l0.083,0.048l0.074-0.061c0.336-0.276,0.604-0.516,0.797-0.713c0.774,0.44,1.461,0.945,2.044,1.505
		c-0.63,0.667-1.729,1.264-3.268,1.776l-0.241,0.08l0.198,0.159l0.423,0.339l0.058,0.047l0.071-0.023
		c1.853-0.604,3.181-1.424,3.949-2.439c0.768-1.015,1.174-2.156,1.207-3.393l0.004-0.142h-0.142h-2.826
		c0.158-0.35,0.26-0.598,0.31-0.753l0.049-0.154l-0.159-0.025l-0.653-0.102L16.396,8.157z M16.618,9.877h2.318
		c-0.113,0.833-0.409,1.599-0.881,2.279c-0.522-0.469-1.197-0.955-2.011-1.447C16.222,10.49,16.414,10.211,16.618,9.877"/>
	<path display="inline" clip-path="url(#SVGID_2_)" d="M29.577,8.311v2.225c1.278,0.596,2.358,1.196,3.24,1.801l-0.333,0.39
		c-0.782-0.57-1.751-1.123-2.908-1.659v3.982h-0.671v-6.74H29.577z M29.715,8.173h-0.138h-0.671h-0.138v0.138v6.74v0.138h0.138
		h0.671h0.138v-0.138v-3.765c1.058,0.501,1.962,1.023,2.689,1.553l0.103,0.075l0.083-0.097l0.333-0.39l0.099-0.117l-0.126-0.087
		c-0.867-0.594-1.936-1.191-3.181-1.775V8.311V8.173z"/>
	<path display="inline" clip-path="url(#SVGID_2_)" d="M56.469,8.284l0.58,0.109c-0.169,0.446-0.371,0.904-0.604,1.373h1.384
		c-0.117-0.359-0.31-0.763-0.58-1.212l0.544-0.123c0.282,0.464,0.492,0.909,0.629,1.335h1.638v0.359h-1.82v1.081h1.56v0.359h-1.56
		v1.111h1.56v0.374h-1.56v1.175h1.917v0.367H56.27v0.397h-0.593v-4.015c-0.137,0.175-0.274,0.323-0.411,0.445l-0.472-0.254
		C55.468,10.476,56.026,9.516,56.469,8.284 M56.27,11.206h1.336v-1.081H56.27V11.206z M56.27,12.676h1.336v-1.111H56.27V12.676z
		 M56.27,14.225h1.336v-1.175H56.27V14.225z M56.379,8.127l-0.04,0.11c-0.435,1.208-0.988,2.16-1.644,2.831l-0.128,0.131
		l0.161,0.087l0.472,0.254l0.085,0.046l0.072-0.064c0.06-0.054,0.121-0.113,0.181-0.176v3.643v0.138h0.138h0.593h0.138v-0.138V14.73
		h3.749h0.138v-0.138v-0.367v-0.138h-0.138h-1.779v-0.899h1.422h0.138v-0.138v-0.374v-0.138h-0.138h-1.422v-0.835h1.422h0.138
		v-0.138v-0.359v-0.138h-0.138h-1.422v-0.805h1.682h0.138v-0.138V9.765V9.627h-0.138h-1.539c-0.14-0.406-0.345-0.832-0.61-1.269
		L57.86,8.274l-0.097,0.022l-0.544,0.123l-0.034,0.008l0.053-0.139l-0.162-0.03l-0.58-0.109L56.379,8.127z M56.667,9.627
		c0.167-0.347,0.318-0.69,0.45-1.026l0.014,0.023c0.219,0.364,0.388,0.701,0.503,1.003H56.667z M56.408,10.263h1.06v0.805h-1.06
		V10.263z M56.408,11.703h1.06v0.835h-1.06V11.703z M56.408,13.188h1.06v0.899h-1.06V13.188z"/>
	<path display="inline" clip-path="url(#SVGID_2_)" d="M41.574,10.255c0.802,0.296,1.471,0.603,2.007,0.919l-0.357,0.298
		c-0.665-0.357-1.33-0.664-1.995-0.923L41.574,10.255z M41.546,10.098l-0.062,0.052l-0.345,0.294l-0.176,0.15l0.215,0.084
		c0.657,0.255,1.323,0.564,1.98,0.916l0.082,0.044l0.072-0.06l0.357-0.298l0.15-0.125l-0.168-0.099
		c-0.541-0.319-1.224-0.632-2.03-0.93L41.546,10.098z"/>
	<path display="inline" clip-path="url(#SVGID_2_)" d="M43.05,12.301l0.532,0.207c-0.54,0.947-1.159,1.774-1.856,2.483l-0.496-0.237
		C41.955,13.972,42.562,13.155,43.05,12.301 M42.989,12.129l-0.059,0.103c-0.48,0.84-1.086,1.657-1.801,2.427l-0.128,0.137
		l0.169,0.081l0.496,0.237l0.089,0.042l0.069-0.07c0.702-0.713,1.334-1.558,1.878-2.511l0.079-0.139l-0.149-0.058L43.1,12.173
		L42.989,12.129z"/>
	<path display="inline" clip-path="url(#SVGID_2_)" d="M41.798,8.311c0.621,0.262,1.183,0.583,1.687,0.965l-0.423,0.267
		c-0.637-0.43-1.193-0.748-1.669-0.957L41.798,8.311z M41.783,8.155l-0.062,0.042l-0.405,0.275l-0.207,0.14l0.229,0.1
		c0.466,0.204,1.02,0.522,1.647,0.945l0.075,0.05l0.076-0.048l0.423-0.268l0.168-0.106l-0.159-0.12
		c-0.51-0.386-1.087-0.717-1.716-0.982L41.783,8.155z"/>
	<path display="inline" clip-path="url(#SVGID_2_)" d="M46.889,9.091c-0.137,1.175-0.459,2.188-0.967,3.036
		c0.403,0.741,0.746,1.489,1.028,2.246l-0.52,0.188c-0.29-0.751-0.57-1.376-0.84-1.876c-0.641,0.854-1.376,1.558-2.207,2.113
		l-0.49-0.215c1.088-0.751,1.896-1.569,2.424-2.456c-0.496-0.879-1.012-1.699-1.548-2.46l0.345-0.177h-0.393V9.091H46.889z
		 M47.044,8.953h-0.155h-3.168h-0.138v0.138V9.49v0.118l-0.018,0.009l0.091,0.13c0.517,0.735,1.022,1.534,1.501,2.378
		c-0.516,0.84-1.304,1.628-2.343,2.345l-0.204,0.141l0.227,0.099l0.49,0.215l0.069,0.03l0.063-0.042
		c0.783-0.523,1.491-1.186,2.108-1.973c0.236,0.461,0.483,1.022,0.733,1.671l0.049,0.126l0.127-0.046l0.52-0.188l0.131-0.047
		l-0.049-0.131c-0.274-0.735-0.61-1.473-0.999-2.194c0.493-0.848,0.811-1.865,0.946-3.023L47.044,8.953z"/>
	<path display="inline" clip-path="url(#SVGID_2_)" fill="#23102A" d="M46.206,9.49c-0.145,0.841-0.343,1.523-0.593,2.046
		c-0.443-0.743-0.881-1.425-1.312-2.046H46.206z M46.369,9.352h-0.164h-1.904h-0.264l0.151,0.217
		c0.428,0.616,0.868,1.302,1.307,2.038l0.132,0.221l0.111-0.232c0.254-0.531,0.457-1.231,0.604-2.082L46.369,9.352z"/>
</g>
<g>
	<path fill="#D1A564" d="M13.748,23.725c0.54,0.821,0.811,1.84,0.811,3.057c0,1.642-0.579,2.941-1.738,3.897
		c-1.159,0.956-2.81,1.434-4.954,1.434c-1.584,0-2.965-0.28-4.143-0.84C2.545,30.712,1.637,30.008,1,29.157v-5.852h0.608
		c0.058,1.468,0.386,2.752,0.985,3.853c0.599,1.101,1.386,1.946,2.361,2.535c0.975,0.59,2.052,0.884,3.23,0.884
		c1.197,0,2.115-0.275,2.753-0.826c0.637-0.55,0.956-1.299,0.956-2.245c0-0.734-0.188-1.347-0.565-1.84
		c-0.376-0.492-1.019-0.903-1.927-1.231l-3.969-1.391c-1.429-0.502-2.448-1.134-3.057-1.898c-0.608-0.763-0.913-1.733-0.913-2.912
		c0-0.927,0.241-1.772,0.724-2.535c0.483-0.763,1.212-1.376,2.187-1.84c0.975-0.464,2.168-0.696,3.578-0.696
		c1.12,0,2.192,0.169,3.216,0.507c1.023,0.338,1.883,0.816,2.579,1.434l0.29,4.983h-0.608c-0.251-1.835-0.855-3.191-1.811-4.071
		C10.662,15.14,9.498,14.7,8.127,14.7c-1.391,0-2.415,0.275-3.071,0.826c-0.657,0.55-0.985,1.231-0.985,2.043
		c0,0.618,0.178,1.13,0.536,1.536c0.357,0.406,0.951,0.763,1.782,1.072l4.462,1.593C12.241,22.252,13.207,22.904,13.748,23.725"/>
	<path fill="#D1A564" d="M20.426,30.896c0.203,0.174,0.545,0.261,1.029,0.261v0.753h-1.536h-2.376h-1.536v-0.753
		c0.483,0,0.826-0.087,1.029-0.261c0.203-0.174,0.304-0.511,0.304-1.014V15.482c0-0.502-0.101-0.84-0.304-1.014
		c-0.203-0.174-0.546-0.261-1.029-0.261v-0.753h1.536h2.578v16.427C20.122,30.384,20.223,30.722,20.426,30.896 M19.368,22.32h0.811
		c0.135-1.062,0.54-1.956,1.217-2.68c0.676-0.724,1.612-1.087,2.81-1.087c1.352,0,2.361,0.411,3.028,1.231
		c0.666,0.821,1,2.014,1,3.578v6.519c0,0.503,0.101,0.84,0.304,1.014c0.203,0.174,0.546,0.261,1.029,0.261v0.753h-1.535h-2.376
		H24.12v-0.753c0.483,0,0.826-0.087,1.029-0.261c0.203-0.174,0.304-0.511,0.304-1.014v-5.997c0-1.333-0.145-2.289-0.435-2.868
		c-0.29-0.579-0.84-0.869-1.651-0.869c-0.947,0-1.724,0.503-2.332,1.507c-0.608,1.005-0.913,2.685-0.913,5.041h-0.753V22.32z"/>
	<path fill="#D1A564" d="M39.214,28.23c-0.232,1.12-0.662,2.048-1.289,2.781c-0.628,0.734-1.541,1.101-2.738,1.101
		c-1.275,0-2.241-0.367-2.897-1.101c-0.657-0.734-0.985-1.854-0.985-3.361c0-0.927,0.145-1.728,0.435-2.405l8.605-0.956v0.724
		l-6.113,1.246c-0.174,0.425-0.261,0.995-0.261,1.709c0,0.773,0.159,1.391,0.478,1.854c0.319,0.464,0.787,0.695,1.405,0.695
		c0.598,0,1.149-0.241,1.651-0.724c0.502-0.483,0.903-1.217,1.202-2.202c0.299-0.985,0.449-2.202,0.449-3.65
		c0-1.294-0.213-2.284-0.637-2.97c-0.425-0.685-1.082-1.029-1.97-1.029c-0.734,0-1.294,0.198-1.68,0.594
		c-0.387,0.396-0.58,0.913-0.58,1.55c0,0.174,0.014,0.338,0.044,0.493c0.029,0.155,0.063,0.309,0.101,0.463v0.087l-2.521,0.232
		l-0.029-0.058c-0.135-0.483-0.203-0.84-0.203-1.072c0-1.062,0.458-1.941,1.376-2.636c0.917-0.696,2.129-1.043,3.636-1.043
		c1.487,0,2.603,0.309,3.346,0.927c0.744,0.618,1.212,1.362,1.405,2.231c0.193,0.869,0.29,1.893,0.29,3.071v5.099
		c0,0.503,0.101,0.84,0.304,1.014c0.203,0.174,0.546,0.261,1.029,0.261v0.753h-1.536h-2.231V28.23H39.214z"/>
	<path fill="#D1A564" d="M49.108,30.896c0.203,0.174,0.546,0.261,1.029,0.261v0.753h-1.536h-2.376H44.69v-0.753
		c0.482,0,0.826-0.087,1.029-0.261c0.203-0.174,0.304-0.511,0.304-1.014v-9.04c0-0.502-0.101-0.84-0.304-1.014
		c-0.203-0.174-0.546-0.261-1.029-0.261v-0.753h1.535h2.579v11.068C48.804,30.384,48.905,30.722,49.108,30.896 M48.051,22.32h0.811
		c0.135-1.062,0.541-1.956,1.217-2.68c0.676-0.724,1.612-1.087,2.81-1.087c1.352,0,2.361,0.411,3.028,1.231
		c0.666,0.821,1,2.014,1,3.578v6.519c0,0.503,0.101,0.84,0.304,1.014c0.203,0.174,0.545,0.261,1.029,0.261v0.753h-1.536h-2.376
		h-1.536v-0.753c0.483,0,0.826-0.087,1.029-0.261c0.203-0.174,0.304-0.511,0.304-1.014v-5.997c0-1.333-0.145-2.289-0.435-2.868
		c-0.29-0.579-0.84-0.869-1.651-0.869c-0.947,0-1.724,0.503-2.332,1.507c-0.609,1.005-0.913,2.685-0.913,5.041h-0.754V22.32z"/>
	<path fill="#D1A564" d="M62.262,36.256c-0.937-0.367-1.613-0.874-2.028-1.521c-0.416-0.647-0.565-1.386-0.449-2.216l3.969-2.115
		l0.29,0.261l-2.057,1.999c-0.116,0.521-0.073,0.999,0.13,1.434c0.203,0.434,0.613,0.792,1.231,1.072
		c0.618,0.28,1.438,0.42,2.463,0.42c1.197,0,2.101-0.222,2.709-0.666c0.608-0.445,0.913-1.004,0.913-1.68
		c0-1.159-0.802-1.796-2.405-1.912l-4.056-0.29c-0.869-0.058-1.55-0.372-2.043-0.942c-0.492-0.569-0.671-1.279-0.536-2.13
		l2.955-1.014l0.348,0.319l-1.275,1.072c0.154,0.193,0.396,0.348,0.724,0.464c0.328,0.116,0.85,0.203,1.564,0.261l3.303,0.232
		c1.197,0.097,2.139,0.425,2.825,0.985c0.685,0.56,1.029,1.343,1.029,2.347c0,1.197-0.492,2.192-1.477,2.984
		c-0.985,0.792-2.521,1.188-4.607,1.188C64.372,36.806,63.198,36.622,62.262,36.256 M62.595,27.158
		c-0.792-0.406-1.396-0.961-1.811-1.666c-0.416-0.705-0.623-1.482-0.623-2.332c0-0.85,0.207-1.627,0.623-2.332
		c0.415-0.705,1.018-1.26,1.811-1.666c0.792-0.405,1.728-0.608,2.81-0.608c1.255,0,2.298,0.289,3.129,0.869l0.347,0.492
		c0.444,0.193,0.855,0.604,1.231,1.231c0.377,0.628,0.565,1.338,0.565,2.129c0,0.831-0.208,1.584-0.623,2.26
		c-0.416,0.676-1.024,1.217-1.825,1.622c-0.802,0.406-1.743,0.608-2.825,0.608C64.323,27.767,63.387,27.564,62.595,27.158
		 M67.303,25.536c0.396-0.58,0.594-1.371,0.594-2.376c0-1.004-0.198-1.796-0.594-2.376c-0.396-0.579-1.009-0.869-1.84-0.869
		c-0.831,0-1.444,0.29-1.84,0.869c-0.396,0.58-0.594,1.372-0.594,2.376c0,1.024,0.198,1.821,0.594,2.39
		c0.396,0.57,1.009,0.855,1.84,0.855C66.293,26.405,66.907,26.115,67.303,25.536 M66.535,18.814h5.447v0.551l-3.506,1.159
		L66.535,18.814z"/>
	<path fill="#D1A564" d="M78.254,30.896c0.203,0.174,0.546,0.261,1.029,0.261v0.753h-1.536h-2.376h-1.535v-0.753
		c0.482,0,0.826-0.087,1.029-0.261c0.203-0.174,0.304-0.511,0.304-1.014V15.482c0-0.502-0.101-0.84-0.304-1.014
		c-0.203-0.174-0.546-0.261-1.029-0.261v-0.753h1.535h2.579v16.427C77.95,30.384,78.051,30.722,78.254,30.896 M77.197,22.32h0.811
		c0.135-1.062,0.541-1.956,1.217-2.68c0.676-0.724,1.613-1.087,2.81-1.087c1.352,0,2.361,0.411,3.028,1.231
		c0.666,0.821,1,2.014,1,3.578v6.519c0,0.503,0.101,0.84,0.304,1.014c0.203,0.174,0.545,0.261,1.029,0.261v0.753H85.86h-2.376
		h-1.536v-0.753c0.483,0,0.826-0.087,1.029-0.261c0.203-0.174,0.304-0.511,0.304-1.014v-5.997c0-1.333-0.145-2.289-0.434-2.868
		c-0.29-0.579-0.84-0.869-1.652-0.869c-0.947,0-1.724,0.503-2.332,1.507c-0.609,1.005-0.913,2.685-0.913,5.041h-0.753V22.32z"/>
	<path fill="#D1A564" d="M97.043,28.23c-0.232,1.12-0.662,2.048-1.289,2.781c-0.628,0.734-1.54,1.101-2.738,1.101
		c-1.275,0-2.241-0.367-2.897-1.101c-0.657-0.734-0.985-1.854-0.985-3.361c0-0.927,0.145-1.728,0.434-2.405l8.605-0.956v0.724
		L92.06,26.26c-0.174,0.425-0.261,0.995-0.261,1.709c0,0.773,0.159,1.391,0.478,1.854c0.318,0.464,0.787,0.695,1.405,0.695
		c0.599,0,1.149-0.241,1.651-0.724c0.502-0.483,0.903-1.217,1.202-2.202c0.299-0.985,0.449-2.202,0.449-3.65
		c0-1.294-0.213-2.284-0.638-2.97c-0.425-0.685-1.082-1.029-1.97-1.029c-0.734,0-1.294,0.198-1.68,0.594
		c-0.386,0.396-0.579,0.913-0.579,1.55c0,0.174,0.014,0.338,0.044,0.493c0.029,0.155,0.063,0.309,0.101,0.463v0.087l-2.521,0.232
		l-0.029-0.058c-0.135-0.483-0.203-0.84-0.203-1.072c0-1.062,0.459-1.941,1.376-2.636c0.917-0.696,2.129-1.043,3.636-1.043
		c1.487,0,2.603,0.309,3.346,0.927c0.743,0.618,1.212,1.362,1.405,2.231c0.193,0.869,0.29,1.893,0.29,3.071v5.099
		c0,0.503,0.101,0.84,0.304,1.014c0.203,0.174,0.545,0.261,1.029,0.261v0.753h-1.536H97.13V28.23H97.043z"/>
	<path fill="#D1A564" d="M106.386,30.896c0.203,0.174,0.546,0.261,1.029,0.261v0.753h-1.536h-2.376h-1.535v-0.753
		c0.482,0,0.826-0.087,1.029-0.261c0.203-0.174,0.304-0.511,0.304-1.014v-9.039c0-0.502-0.101-0.84-0.304-1.014
		c-0.203-0.174-0.546-0.261-1.029-0.261v-0.753h1.535h2.579v11.067C106.082,30.384,106.184,30.722,106.386,30.896 M104.634,12.585
		l2.086,2.057l-2.086,2.086l-2.057-2.086L104.634,12.585z"/>
	<path fill="#D1A564" d="M114.715,31.91v-0.753c0.579,0,1.019-0.087,1.318-0.261c0.299-0.174,0.478-0.502,0.536-0.985l1.999-14.457
		c0.058-0.502-0.01-0.835-0.203-1c-0.193-0.164-0.57-0.246-1.13-0.246v-0.753h1.825h1.768l-2.26,16.456
		c-0.058,0.503,0.053,0.836,0.333,1c0.28,0.164,0.797,0.246,1.55,0.246v0.753h-2.463h-1.448H114.715z M122.306,13.454l5.737,18.455
		h-2.752l-5.823-18.455H122.306z M127.202,31.301c-0.019-0.985,0.004-1.917,0.072-2.796c0.067-0.879,0.285-1.849,0.652-2.912
		l4.201-12.139h1.767l-5.708,18.455h-0.956C127.231,31.659,127.221,31.456,127.202,31.301 M133.055,31.91v-0.753
		c0.753,0,1.27-0.082,1.55-0.246c0.28-0.164,0.381-0.497,0.304-1l-2.376-16.456h2.579h1.825v0.753c-0.561,0-0.937,0.082-1.13,0.246
		c-0.193,0.164-0.251,0.497-0.174,1l2.086,14.457c0.077,0.483,0.266,0.811,0.565,0.985c0.299,0.174,0.739,0.261,1.318,0.261v0.753
		h-1.825h-2.26H133.055z"/>
	<path fill="#D1A564" d="M142.615,30.36c-1.14-1.169-1.709-2.863-1.709-5.085c0-2.183,0.536-3.848,1.608-4.998
		c1.072-1.149,2.545-1.724,4.418-1.724c1.699,0,3.008,0.459,3.926,1.376c0.917,0.918,1.376,2.187,1.376,3.81
		c0,0.638-0.019,1.111-0.058,1.42l-9.329,0.29v-0.927l7.185-0.58l-0.782,0.695c0.251-0.502,0.377-1.139,0.377-1.912
		c0-0.772-0.237-1.429-0.71-1.97c-0.474-0.541-1.106-0.811-1.898-0.811c-1.062,0-1.903,0.42-2.521,1.26
		c-0.618,0.84-0.927,2.168-0.927,3.984c0,1.719,0.386,3.033,1.159,3.94c0.772,0.908,1.844,1.361,3.216,1.361
		c0.714,0,1.328-0.125,1.84-0.376c0.511-0.251,0.922-0.56,1.231-0.927c0.309-0.367,0.569-0.763,0.782-1.188l0.579,0.232
		c-0.193,0.599-0.483,1.183-0.869,1.753c-0.386,0.57-0.932,1.067-1.637,1.492c-0.705,0.425-1.57,0.638-2.593,0.638
		C145.31,32.113,143.755,31.528,142.615,30.36"/>
</g>
</svg>
